<?xml version="1.0" encoding="utf-8"?>
<!-- Generator: Adobe Illustrator 21.0.0, SVG Export Plug-In . SVG Version: 6.00 Build 0)  -->
<svg version="1.1" id="Layer_1" xmlns="http://www.w3.org/2000/svg" xmlns:xlink="http://www.w3.org/1999/xlink" x="0px" y="0px"
	 viewBox="0 0 100 100" style="enable-background:new 0 0 100 100;" xml:space="preserve">
<style type="text/css">
	.st0{clip-path:url(#SVGID_2_);fill:#F9F7FB;}
	.st1{clip-path:url(#SVGID_4_);fill:#F9F7FB;}
	.st2{clip-path:url(#SVGID_6_);fill:#F9F7FB;}
	.st3{clip-path:url(#SVGID_8_);fill:#F9F7FB;}
	.st4{clip-path:url(#SVGID_10_);fill:#F9F7FB;}
	.st5{clip-path:url(#SVGID_12_);fill:#F9F7FB;}
	.st6{clip-path:url(#SVGID_14_);fill:#F9F7FB;}
	.st7{clip-path:url(#SVGID_16_);fill:#F9F7FB;}
	.st8{clip-path:url(#SVGID_18_);fill:#F9F7FB;}
	.st9{clip-path:url(#SVGID_20_);fill:#F9F7FB;}
	.st10{clip-path:url(#SVGID_22_);fill:#F9F7FB;}
	.st11{clip-path:url(#SVGID_24_);fill:#F9F7FB;}
	.st12{clip-path:url(#SVGID_26_);fill:#F9F7FB;}
	.st13{clip-path:url(#SVGID_28_);fill:#F9F7FB;}
	.st14{clip-path:url(#SVGID_30_);fill:#F9F7FB;}
	.st15{clip-path:url(#SVGID_32_);fill:#F9F7FB;}
	.st16{clip-path:url(#SVGID_34_);fill:#F9F7FB;}
	.st17{clip-path:url(#SVGID_36_);fill:#F9F7FB;}
	.st18{clip-path:url(#SVGID_38_);fill:#F9F7FB;}
	.st19{clip-path:url(#SVGID_40_);fill:#F9F7FB;}
	.st20{clip-path:url(#SVGID_42_);fill:#F9F7FB;}
	.st21{clip-path:url(#SVGID_44_);fill:#F9F7FB;}
	.st22{clip-path:url(#SVGID_46_);fill:#F9F7FB;}
	.st23{clip-path:url(#SVGID_48_);fill:#F9F7FB;}
	.st24{clip-path:url(#SVGID_50_);fill:#F9F7FB;}
	.st25{clip-path:url(#SVGID_52_);fill:#F9F7FB;}
	.st26{clip-path:url(#SVGID_54_);fill:#F9F7FB;}
</style>
<g>
	<defs>
		<path id="SVGID_39_" d="M72,34c-2.2,0-4-1.8-4-4s1.8-4,4-4s4,1.8,4,4S74.2,34,72,34z M70,65c0,1.1-0.9,2-2,2s-2-0.9-2-2
			c0-1.1,0.9-2,2-2S70,63.9,70,65z M52,55c-3.3,0-6-2.7-6-6s2.7-6,6-6s6,2.7,6,6S55.3,55,52,55z M56,73c0,2.2-1.8,4-4,4s-4-1.8-4-4
			s1.8-4,4-4S56,70.8,56,73z M29,75c-2.2,0-4-1.8-4-4s1.8-4,4-4s4,1.8,4,4S31.2,75,29,75z M34,33c0-1.1,0.9-2,2-2s2,0.9,2,2
			s-0.9,2-2,2S34,34.1,34,33z M72,24c-3.3,0-6,2.7-6,6c0,1,0.3,2,0.7,2.9l-9.8,9.8C55.5,41.6,53.8,41,52,41s-3.5,0.6-4.9,1.7
			L39.4,35c0.4-0.6,0.6-1.3,0.6-2c0-2.2-1.8-4-4-4s-4,1.8-4,4s1.8,4,4,4c0.7,0,1.4-0.2,2-0.6l7.7,7.7C44.6,45.5,44,47.2,44,49
			s0.6,3.5,1.7,4.9L33,66.6c-1.1-1-2.5-1.6-4-1.6c-3.3,0-6,2.7-6,6s2.7,6,6,6s6-2.7,6-6c0-1-0.3-2-0.7-2.9l12.8-12.8
			c1.1,0.9,2.4,1.4,3.9,1.6v10.2c-2.8,0.5-5,2.9-5,5.9c0,3.3,2.7,6,6,6c3.3,0,6-2.7,6-6c0-3-2.2-5.4-5-5.9V56.9
			c1.5-0.2,2.8-0.8,3.9-1.6l7.7,7.7c-0.4,0.6-0.6,1.3-0.6,2c0,2.2,1.8,4,4,4s4-1.8,4-4s-1.8-4-4-4c-0.7,0-1.4,0.2-2,0.6l-7.7-7.7
			c1.1-1.4,1.7-3.1,1.7-4.9s-0.6-3.5-1.7-4.9l9.7-9.7c1.1,1,2.5,1.6,4,1.6c3.3,0,6-2.7,6-6S75.3,24,72,24z"/>
	</defs>
	<clipPath id="SVGID_2_">
		<use xlink:href="#SVGID_39_"  style="overflow:visible;"/>
	</clipPath>
	<rect x="18" y="19" class="st0" width="65" height="65"/>
</g>
</svg>
