<?xml version="1.0" encoding="utf-8"?>
<!-- Generator: Adobe Illustrator 21.0.0, SVG Export Plug-In . SVG Version: 6.00 Build 0)  -->
<svg version="1.1" id="Layer_1" xmlns="http://www.w3.org/2000/svg" xmlns:xlink="http://www.w3.org/1999/xlink" x="0px" y="0px"
	 viewBox="0 0 100 100" style="enable-background:new 0 0 100 100;" xml:space="preserve">
<style type="text/css">
	.st0{clip-path:url(#SVGID_2_);fill:#F9F7FB;}
	.st1{clip-path:url(#SVGID_4_);fill:#F9F7FB;}
	.st2{clip-path:url(#SVGID_6_);fill:#F9F7FB;}
	.st3{clip-path:url(#SVGID_8_);fill:#F9F7FB;}
	.st4{clip-path:url(#SVGID_10_);fill:#F9F7FB;}
	.st5{clip-path:url(#SVGID_12_);fill:#F9F7FB;}
	.st6{clip-path:url(#SVGID_14_);fill:#F9F7FB;}
	.st7{clip-path:url(#SVGID_16_);fill:#F9F7FB;}
	.st8{clip-path:url(#SVGID_18_);fill:#F9F7FB;}
	.st9{clip-path:url(#SVGID_20_);fill:#F9F7FB;}
	.st10{clip-path:url(#SVGID_22_);fill:#F9F7FB;}
	.st11{clip-path:url(#SVGID_24_);fill:#F9F7FB;}
	.st12{clip-path:url(#SVGID_26_);fill:#F9F7FB;}
	.st13{clip-path:url(#SVGID_28_);fill:#F9F7FB;}
	.st14{clip-path:url(#SVGID_30_);fill:#F9F7FB;}
	.st15{clip-path:url(#SVGID_32_);fill:#F9F7FB;}
	.st16{clip-path:url(#SVGID_34_);fill:#F9F7FB;}
	.st17{clip-path:url(#SVGID_36_);fill:#F9F7FB;}
	.st18{clip-path:url(#SVGID_38_);fill:#F9F7FB;}
	.st19{clip-path:url(#SVGID_40_);fill:#F9F7FB;}
	.st20{clip-path:url(#SVGID_42_);fill:#F9F7FB;}
	.st21{clip-path:url(#SVGID_44_);fill:#F9F7FB;}
	.st22{clip-path:url(#SVGID_46_);fill:#F9F7FB;}
	.st23{clip-path:url(#SVGID_48_);fill:#F9F7FB;}
	.st24{clip-path:url(#SVGID_50_);fill:#F9F7FB;}
	.st25{clip-path:url(#SVGID_52_);fill:#F9F7FB;}
	.st26{clip-path:url(#SVGID_54_);fill:#F9F7FB;}
</style>
<g>
	<g>
		<defs>
			<path id="SVGID_1_" d="M54.7,62.2c-0.4,0.1-0.7,0.5-0.7,1V65h-8v-1.8c0-0.4-0.3-0.8-0.7-1C39.1,60.2,35,54.5,35,48
				c0-8.3,6.7-15,15-15s15,6.7,15,15C65,54.5,60.9,60.2,54.7,62.2z M53,72c-0.6,0-1,0.4-1,1v2h-4v-2c0-0.6-0.4-1-1-1h-1v-5h8v5H53z
				 M50,31c-9.4,0-17,7.6-17,17c0,7.1,4.4,13.4,11,15.9V73c0,0.6,0.4,1,1,1h1v2c0,0.6,0.4,1,1,1h6c0.6,0,1-0.4,1-1v-2h1
				c0.6,0,1-0.4,1-1v-9.1c6.6-2.5,11-8.8,11-15.9C67,38.6,59.4,31,50,31z"/>
		</defs>
		<clipPath id="SVGID_2_">
			<use xlink:href="#SVGID_1_"  style="overflow:visible;"/>
		</clipPath>
		<rect x="28" y="26" class="st0" width="44" height="56"/>
	</g>
	<g>
		<defs>
			<path id="SVGID_3_" d="M50,29c0.6,0,1-0.4,1-1v-4c0-0.6-0.4-1-1-1s-1,0.4-1,1v4C49,28.6,49.4,29,50,29z"/>
		</defs>
		<clipPath id="SVGID_4_">
			<use xlink:href="#SVGID_3_"  style="overflow:visible;"/>
		</clipPath>
		<rect x="44" y="18" class="st1" width="12" height="16"/>
	</g>
	<g>
		<defs>
			<path id="SVGID_5_" d="M74,47h-4c-0.6,0-1,0.4-1,1s0.4,1,1,1h4c0.6,0,1-0.4,1-1S74.6,47,74,47z"/>
		</defs>
		<clipPath id="SVGID_6_">
			<use xlink:href="#SVGID_5_"  style="overflow:visible;"/>
		</clipPath>
		<rect x="64" y="42" class="st2" width="16" height="12"/>
	</g>
	<g>
		<defs>
			<path id="SVGID_7_" d="M30,47h-4c-0.6,0-1,0.4-1,1s0.4,1,1,1h4c0.6,0,1-0.4,1-1S30.6,47,30,47z"/>
		</defs>
		<clipPath id="SVGID_8_">
			<use xlink:href="#SVGID_7_"  style="overflow:visible;"/>
		</clipPath>
		<rect x="20" y="42" class="st3" width="16" height="12"/>
	</g>
	<g>
		<defs>
			<path id="SVGID_9_" d="M66.3,30.3l-2.8,2.8c-0.4,0.4-0.4,1,0,1.4c0.2,0.2,0.5,0.3,0.7,0.3c0.3,0,0.5-0.1,0.7-0.3l2.8-2.8
				c0.4-0.4,0.4-1,0-1.4C67.3,29.9,66.7,29.9,66.3,30.3z"/>
		</defs>
		<clipPath id="SVGID_10_">
			<use xlink:href="#SVGID_9_"  style="overflow:visible;"/>
		</clipPath>
		<rect x="58.1" y="25" class="st4" width="14.8" height="14.8"/>
	</g>
	<g>
		<defs>
			<path id="SVGID_11_" d="M35.2,61.4l-2.8,2.8c-0.4,0.4-0.4,1,0,1.4c0.2,0.2,0.5,0.3,0.7,0.3s0.5-0.1,0.7-0.3l2.8-2.8
				c0.4-0.4,0.4-1,0-1.4C36.2,61,35.5,61,35.2,61.4z"/>
		</defs>
		<clipPath id="SVGID_12_">
			<use xlink:href="#SVGID_11_"  style="overflow:visible;"/>
		</clipPath>
		<rect x="27" y="56.1" class="st5" width="14.8" height="14.8"/>
	</g>
	<g>
		<defs>
			<path id="SVGID_13_" d="M64.8,61.4c-0.4-0.4-1-0.4-1.4,0c-0.4,0.4-0.4,1,0,1.4l2.8,2.8c0.2,0.2,0.5,0.3,0.7,0.3s0.5-0.1,0.7-0.3
				c0.4-0.4,0.4-1,0-1.4L64.8,61.4z"/>
		</defs>
		<clipPath id="SVGID_14_">
			<use xlink:href="#SVGID_13_"  style="overflow:visible;"/>
		</clipPath>
		<rect x="58.1" y="56.1" class="st6" width="14.8" height="14.8"/>
	</g>
	<g>
		<defs>
			<path id="SVGID_15_" d="M35.2,34.6c0.2,0.2,0.5,0.3,0.7,0.3c0.3,0,0.5-0.1,0.7-0.3c0.4-0.4,0.4-1,0-1.4l-2.8-2.8
				c-0.4-0.4-1-0.4-1.4,0c-0.4,0.4-0.4,1,0,1.4L35.2,34.6z"/>
		</defs>
		<clipPath id="SVGID_16_">
			<use xlink:href="#SVGID_15_"  style="overflow:visible;"/>
		</clipPath>
		<rect x="27" y="25" class="st7" width="14.8" height="14.8"/>
	</g>
	<g>
		<defs>
			<path id="SVGID_17_" d="M50,36c-6.6,0-12,5.4-12,12c0,0.6,0.4,1,1,1s1-0.4,1-1c0-5.5,4.5-10,10-10c0.6,0,1-0.4,1-1S50.6,36,50,36
				z"/>
		</defs>
		<clipPath id="SVGID_18_">
			<use xlink:href="#SVGID_17_"  style="overflow:visible;"/>
		</clipPath>
		<rect x="33" y="31" class="st8" width="23" height="23"/>
	</g>
</g>
</svg>
