<?xml version="1.0" encoding="utf-8"?>
<!-- Generator: Adobe Illustrator 21.0.0, SVG Export Plug-In . SVG Version: 6.00 Build 0)  -->
<svg version="1.1" id="Layer_1" xmlns="http://www.w3.org/2000/svg" xmlns:xlink="http://www.w3.org/1999/xlink" x="0px" y="0px"
	 viewBox="0 0 100 100" style="enable-background:new 0 0 100 100;" xml:space="preserve">
<style type="text/css">
	.st0{clip-path:url(#SVGID_2_);fill:#F9F7FB;}
	.st1{clip-path:url(#SVGID_4_);fill:#F9F7FB;}
	.st2{clip-path:url(#SVGID_6_);fill:#F9F7FB;}
	.st3{clip-path:url(#SVGID_8_);fill:#F9F7FB;}
	.st4{clip-path:url(#SVGID_10_);fill:#F9F7FB;}
	.st5{clip-path:url(#SVGID_12_);fill:#F9F7FB;}
	.st6{clip-path:url(#SVGID_14_);fill:#F9F7FB;}
	.st7{clip-path:url(#SVGID_16_);fill:#F9F7FB;}
	.st8{clip-path:url(#SVGID_18_);fill:#F9F7FB;}
	.st9{clip-path:url(#SVGID_20_);fill:#F9F7FB;}
	.st10{clip-path:url(#SVGID_22_);fill:#F9F7FB;}
	.st11{clip-path:url(#SVGID_24_);fill:#F9F7FB;}
	.st12{clip-path:url(#SVGID_26_);fill:#F9F7FB;}
	.st13{clip-path:url(#SVGID_28_);fill:#F9F7FB;}
	.st14{clip-path:url(#SVGID_30_);fill:#F9F7FB;}
	.st15{clip-path:url(#SVGID_32_);fill:#F9F7FB;}
	.st16{clip-path:url(#SVGID_34_);fill:#F9F7FB;}
	.st17{clip-path:url(#SVGID_36_);fill:#F9F7FB;}
	.st18{clip-path:url(#SVGID_38_);fill:#F9F7FB;}
	.st19{clip-path:url(#SVGID_40_);fill:#F9F7FB;}
	.st20{clip-path:url(#SVGID_42_);fill:#F9F7FB;}
	.st21{clip-path:url(#SVGID_44_);fill:#F9F7FB;}
	.st22{clip-path:url(#SVGID_46_);fill:#F9F7FB;}
	.st23{clip-path:url(#SVGID_48_);fill:#F9F7FB;}
	.st24{clip-path:url(#SVGID_50_);fill:#F9F7FB;}
	.st25{clip-path:url(#SVGID_52_);fill:#F9F7FB;}
	.st26{clip-path:url(#SVGID_54_);fill:#F9F7FB;}
</style>
<g>
	<defs>
		<path id="SVGID_31_" d="M70.4,56.2c-5.4,5.4-12.5,8.3-20.1,8.3s-14.8-3-20.1-8.3l-6.3-6.3l6.5-6.5C35.7,38,42.9,35,50.5,35
			s14.8,3,20.1,8.3l6.3,6.3L70.4,56.2z M72.1,41.9C66.3,36.2,58.6,33,50.5,33s-15.8,3.2-21.6,8.9L21,49.9l7.7,7.7
			c5.8,5.8,13.4,8.9,21.6,8.9s15.8-3.2,21.6-8.9l7.9-7.9L72.1,41.9z"/>
	</defs>
	<clipPath id="SVGID_2_">
		<use xlink:href="#SVGID_31_"  style="overflow:visible;"/>
	</clipPath>
	<rect x="16" y="28" class="st0" width="68.8" height="43.5"/>
</g>
<g>
	<defs>
		<path id="SVGID_33_" d="M50.1,60.6c-6,0-10.8-4.9-10.8-10.8S44.1,39,50.1,39s10.8,4.9,10.8,10.8C60.9,55.7,56,60.6,50.1,60.6z
			 M50.1,37c-7.1,0-12.8,5.7-12.8,12.8S43,62.6,50.1,62.6c7.1,0,12.8-5.7,12.8-12.8S57.1,37,50.1,37z"/>
	</defs>
	<clipPath id="SVGID_4_">
		<use xlink:href="#SVGID_33_"  style="overflow:visible;"/>
	</clipPath>
	<rect x="32.2" y="32" class="st1" width="35.6" height="35.6"/>
</g>
<g>
	<defs>
		<path id="SVGID_35_" d="M49.7,31.7c0.1,0.1,0.2,0.2,0.3,0.2c0.1,0,0.3,0.1,0.4,0.1c0.1,0,0.3,0,0.4-0.1c0.1-0.1,0.2-0.1,0.3-0.2
			l4-4c0.4-0.4,0.4-1,0-1.4c-0.4-0.4-1-0.4-1.4,0l-2.3,2.3V21c0-0.6-0.4-1-1-1s-1,0.4-1,1v7.6l-2.3-2.3c-0.4-0.4-1-0.4-1.4,0
			s-0.4,1,0,1.4L49.7,31.7z"/>
	</defs>
	<clipPath id="SVGID_6_">
		<use xlink:href="#SVGID_35_"  style="overflow:visible;"/>
	</clipPath>
	<rect x="40.4" y="15" class="st2" width="20" height="22"/>
</g>
<g>
	<defs>
		<path id="SVGID_37_" d="M51.1,68.3c-0.1-0.1-0.2-0.2-0.3-0.2c-0.2-0.1-0.5-0.1-0.8,0c-0.1,0.1-0.2,0.1-0.3,0.2l-4,4
			c-0.4,0.4-0.4,1,0,1.4c0.2,0.2,0.5,0.3,0.7,0.3c0.3,0,0.5-0.1,0.7-0.3l2.3-2.3V79c0,0.6,0.4,1,1,1s1-0.4,1-1v-7.6l2.3,2.3
			c0.2,0.2,0.5,0.3,0.7,0.3s0.5-0.1,0.7-0.3c0.4-0.4,0.4-1,0-1.4L51.1,68.3z"/>
	</defs>
	<clipPath id="SVGID_8_">
		<use xlink:href="#SVGID_37_"  style="overflow:visible;"/>
	</clipPath>
	<rect x="40.4" y="63" class="st3" width="20" height="22"/>
</g>
</svg>
