<?xml version="1.0" encoding="utf-8"?>
<!-- Generator: Adobe Illustrator 21.0.0, SVG Export Plug-In . SVG Version: 6.00 Build 0)  -->
<svg version="1.1" id="Layer_1" xmlns="http://www.w3.org/2000/svg" xmlns:xlink="http://www.w3.org/1999/xlink" x="0px" y="0px"
	 viewBox="0 0 100 100" style="enable-background:new 0 0 100 100;" xml:space="preserve">
<style type="text/css">
	.st0{clip-path:url(#SVGID_2_);fill:#F9F7FB;}
	.st1{clip-path:url(#SVGID_4_);fill:#F9F7FB;}
	.st2{clip-path:url(#SVGID_6_);fill:#F9F7FB;}
	.st3{clip-path:url(#SVGID_8_);fill:#F9F7FB;}
	.st4{clip-path:url(#SVGID_10_);fill:#F9F7FB;}
	.st5{clip-path:url(#SVGID_12_);fill:#F9F7FB;}
	.st6{clip-path:url(#SVGID_14_);fill:#F9F7FB;}
	.st7{clip-path:url(#SVGID_16_);fill:#F9F7FB;}
	.st8{clip-path:url(#SVGID_18_);fill:#F9F7FB;}
	.st9{clip-path:url(#SVGID_20_);fill:#F9F7FB;}
	.st10{clip-path:url(#SVGID_22_);fill:#F9F7FB;}
	.st11{clip-path:url(#SVGID_24_);fill:#F9F7FB;}
	.st12{clip-path:url(#SVGID_26_);fill:#F9F7FB;}
	.st13{clip-path:url(#SVGID_28_);fill:#F9F7FB;}
	.st14{clip-path:url(#SVGID_30_);fill:#F9F7FB;}
	.st15{clip-path:url(#SVGID_32_);fill:#F9F7FB;}
	.st16{clip-path:url(#SVGID_34_);fill:#F9F7FB;}
	.st17{clip-path:url(#SVGID_36_);fill:#F9F7FB;}
	.st18{clip-path:url(#SVGID_38_);fill:#F9F7FB;}
	.st19{clip-path:url(#SVGID_40_);fill:#F9F7FB;}
	.st20{clip-path:url(#SVGID_42_);fill:#F9F7FB;}
	.st21{clip-path:url(#SVGID_44_);fill:#F9F7FB;}
	.st22{clip-path:url(#SVGID_46_);fill:#F9F7FB;}
	.st23{clip-path:url(#SVGID_48_);fill:#F9F7FB;}
	.st24{clip-path:url(#SVGID_50_);fill:#F9F7FB;}
	.st25{clip-path:url(#SVGID_52_);fill:#F9F7FB;}
	.st26{clip-path:url(#SVGID_54_);fill:#F9F7FB;}
</style>
<g>
	<defs>
		<path id="SVGID_19_" d="M72,73h-6V52H33v21h-5V28h7v16h28V28h1.6l7.4,7.4V73z M35,73V54h29v19H35z M61,28v14H37V28H61z M65.4,26
			H63H35h-9v49h7h33h8V34.6L65.4,26z"/>
	</defs>
	<clipPath id="SVGID_2_">
		<use xlink:href="#SVGID_19_"  style="overflow:visible;"/>
	</clipPath>
	<rect x="21" y="21" class="st0" width="58" height="59"/>
</g>
<g>
	<defs>
		<path id="SVGID_21_" d="M39,59h7c0.6,0,1-0.4,1-1s-0.4-1-1-1h-7c-0.6,0-1,0.4-1,1S38.4,59,39,59z"/>
	</defs>
	<clipPath id="SVGID_4_">
		<use xlink:href="#SVGID_21_"  style="overflow:visible;"/>
	</clipPath>
	<rect x="33" y="52" class="st1" width="19" height="12"/>
</g>
<g>
	<defs>
		<path id="SVGID_23_" d="M49,61H39c-0.6,0-1,0.4-1,1s0.4,1,1,1h10c0.6,0,1-0.4,1-1S49.6,61,49,61z"/>
	</defs>
	<clipPath id="SVGID_6_">
		<use xlink:href="#SVGID_23_"  style="overflow:visible;"/>
	</clipPath>
	<rect x="33" y="56" class="st2" width="22" height="12"/>
</g>
<g>
	<defs>
		<path id="SVGID_25_" d="M51.3,61.3C51.1,61.5,51,61.7,51,62s0.1,0.5,0.3,0.7c0.2,0.2,0.4,0.3,0.7,0.3c0.3,0,0.5-0.1,0.7-0.3
			c0.2-0.2,0.3-0.4,0.3-0.7s-0.1-0.5-0.3-0.7C52.3,60.9,51.7,60.9,51.3,61.3z"/>
	</defs>
	<clipPath id="SVGID_8_">
		<use xlink:href="#SVGID_25_"  style="overflow:visible;"/>
	</clipPath>
	<rect x="46" y="56" class="st3" width="12" height="12"/>
</g>
<g>
	<defs>
		<path id="SVGID_27_" d="M57,38h-2v-6h2V38z M59,30h-6v10h6V30z"/>
	</defs>
	<clipPath id="SVGID_10_">
		<use xlink:href="#SVGID_27_"  style="overflow:visible;"/>
	</clipPath>
	<rect x="48" y="25" class="st4" width="16" height="20"/>
</g>
</svg>
