<?xml version="1.0" encoding="utf-8"?>
<!-- Generator: Adobe Illustrator 21.0.0, SVG Export Plug-In . SVG Version: 6.00 Build 0)  -->
<svg version="1.1" id="Layer_1" xmlns="http://www.w3.org/2000/svg" xmlns:xlink="http://www.w3.org/1999/xlink" x="0px" y="0px"
	 viewBox="0 0 100 100" style="enable-background:new 0 0 100 100;" xml:space="preserve">
<style type="text/css">
	.st0{clip-path:url(#SVGID_2_);fill:#F9F7FB;}
	.st1{clip-path:url(#SVGID_4_);fill:#F9F7FB;}
	.st2{clip-path:url(#SVGID_6_);fill:#F9F7FB;}
	.st3{clip-path:url(#SVGID_8_);fill:#F9F7FB;}
	.st4{clip-path:url(#SVGID_10_);fill:#F9F7FB;}
	.st5{clip-path:url(#SVGID_12_);fill:#F9F7FB;}
	.st6{clip-path:url(#SVGID_14_);fill:#F9F7FB;}
	.st7{clip-path:url(#SVGID_16_);fill:#F9F7FB;}
	.st8{clip-path:url(#SVGID_18_);fill:#F9F7FB;}
	.st9{clip-path:url(#SVGID_20_);fill:#F9F7FB;}
	.st10{clip-path:url(#SVGID_22_);fill:#F9F7FB;}
	.st11{clip-path:url(#SVGID_24_);fill:#F9F7FB;}
	.st12{clip-path:url(#SVGID_26_);fill:#F9F7FB;}
	.st13{clip-path:url(#SVGID_28_);fill:#F9F7FB;}
	.st14{clip-path:url(#SVGID_30_);fill:#F9F7FB;}
	.st15{clip-path:url(#SVGID_32_);fill:#F9F7FB;}
	.st16{clip-path:url(#SVGID_34_);fill:#F9F7FB;}
	.st17{clip-path:url(#SVGID_36_);fill:#F9F7FB;}
	.st18{clip-path:url(#SVGID_38_);fill:#F9F7FB;}
	.st19{clip-path:url(#SVGID_40_);fill:#F9F7FB;}
	.st20{clip-path:url(#SVGID_42_);fill:#F9F7FB;}
	.st21{clip-path:url(#SVGID_44_);fill:#F9F7FB;}
	.st22{clip-path:url(#SVGID_46_);fill:#F9F7FB;}
	.st23{clip-path:url(#SVGID_48_);fill:#F9F7FB;}
	.st24{clip-path:url(#SVGID_50_);fill:#F9F7FB;}
	.st25{clip-path:url(#SVGID_52_);fill:#F9F7FB;}
	.st26{clip-path:url(#SVGID_54_);fill:#F9F7FB;}
</style>
<g>
	<defs>
		<path id="SVGID_41_" d="M29,78V22h29v14h14v42H29z M60,23.4L70.6,34H60V23.4z M59.4,20H27v60h47V34.6L59.4,20z"/>
	</defs>
	<clipPath id="SVGID_2_">
		<use xlink:href="#SVGID_41_"  style="overflow:visible;"/>
	</clipPath>
	<rect x="22" y="15" class="st0" width="57" height="70"/>
</g>
<g>
	<defs>
		<path id="SVGID_43_" d="M63,41H47c-0.6,0-1,0.4-1,1s0.4,1,1,1h16c0.6,0,1-0.4,1-1S63.6,41,63,41z"/>
	</defs>
	<clipPath id="SVGID_4_">
		<use xlink:href="#SVGID_43_"  style="overflow:visible;"/>
	</clipPath>
	<rect x="41" y="36" class="st1" width="28" height="12"/>
</g>
<g>
	<defs>
		<path id="SVGID_45_" d="M43.4,38.2l-4.3,3.4l-1.4-1.4c-0.4-0.4-1-0.4-1.4,0s-0.4,1,0,1.4l2,2c0.2,0.2,0.5,0.3,0.7,0.3
			c0.2,0,0.4-0.1,0.6-0.2l5-4c0.4-0.3,0.5-1,0.2-1.4C44.4,37.9,43.8,37.9,43.4,38.2z"/>
	</defs>
	<clipPath id="SVGID_6_">
		<use xlink:href="#SVGID_45_"  style="overflow:visible;"/>
	</clipPath>
	<rect x="31" y="33" class="st2" width="19" height="16"/>
</g>
<g>
	<defs>
		<path id="SVGID_47_" d="M63,52H47c-0.6,0-1,0.4-1,1s0.4,1,1,1h16c0.6,0,1-0.4,1-1S63.6,52,63,52z"/>
	</defs>
	<clipPath id="SVGID_8_">
		<use xlink:href="#SVGID_47_"  style="overflow:visible;"/>
	</clipPath>
	<rect x="41" y="47" class="st3" width="28" height="12"/>
</g>
<g>
	<defs>
		<path id="SVGID_49_" d="M43.4,49.2l-4.3,3.4l-1.4-1.4c-0.4-0.4-1-0.4-1.4,0s-0.4,1,0,1.4l2,2c0.2,0.2,0.5,0.3,0.7,0.3
			c0.2,0,0.4-0.1,0.6-0.2l5-4c0.4-0.3,0.5-1,0.2-1.4C44.4,48.9,43.8,48.9,43.4,49.2z"/>
	</defs>
	<clipPath id="SVGID_10_">
		<use xlink:href="#SVGID_49_"  style="overflow:visible;"/>
	</clipPath>
	<rect x="31" y="44" class="st4" width="19" height="16"/>
</g>
<g>
	<defs>
		<path id="SVGID_51_" d="M63,63H47c-0.6,0-1,0.4-1,1s0.4,1,1,1h16c0.6,0,1-0.4,1-1S63.6,63,63,63z"/>
	</defs>
	<clipPath id="SVGID_12_">
		<use xlink:href="#SVGID_51_"  style="overflow:visible;"/>
	</clipPath>
	<rect x="41" y="58" class="st5" width="28" height="12"/>
</g>
<g>
	<defs>
		<path id="SVGID_53_" d="M43.4,60.2l-4.3,3.4l-1.4-1.4c-0.4-0.4-1-0.4-1.4,0s-0.4,1,0,1.4l2,2c0.2,0.2,0.5,0.3,0.7,0.3
			c0.2,0,0.4-0.1,0.6-0.2l5-4c0.4-0.3,0.5-1,0.2-1.4C44.4,59.9,43.8,59.9,43.4,60.2z"/>
	</defs>
	<clipPath id="SVGID_14_">
		<use xlink:href="#SVGID_53_"  style="overflow:visible;"/>
	</clipPath>
	<rect x="31" y="55" class="st6" width="19" height="16"/>
</g>
</svg>
