<?xml version="1.0" encoding="utf-8"?>
<!-- Generator: Adobe Illustrator 21.0.0, SVG Export Plug-In . SVG Version: 6.00 Build 0)  -->
<svg version="1.1" id="Layer_1" xmlns="http://www.w3.org/2000/svg" xmlns:xlink="http://www.w3.org/1999/xlink" x="0px" y="0px"
	 viewBox="0 0 250 250" style="enable-background:new 0 0 250 250;" xml:space="preserve">
<style type="text/css">
	.st0{clip-path:url(#SVGID_2_);fill:#5A67F4;}
	.st1{clip-path:url(#SVGID_4_);fill:#5A67F4;}
	.st2{clip-path:url(#SVGID_6_);fill:#5A67F4;}
	.st3{clip-path:url(#SVGID_8_);fill:#5A67F4;}
	.st4{clip-path:url(#SVGID_10_);fill:#5A67F4;}
	.st5{clip-path:url(#SVGID_12_);fill:#5A67F4;}
	.st6{clip-path:url(#SVGID_14_);fill:#5A67F4;}
	.st7{clip-path:url(#SVGID_16_);fill:#5A67F4;}
	.st8{clip-path:url(#SVGID_18_);fill:#5A67F4;}
	.st9{clip-path:url(#SVGID_20_);fill:#5A67F4;}
	.st10{clip-path:url(#SVGID_22_);fill:#5A67F4;}
	.st11{clip-path:url(#SVGID_24_);fill:#5A67F4;}
	.st12{clip-path:url(#SVGID_26_);fill:#5A67F4;}
	.st13{clip-path:url(#SVGID_28_);fill:#5A67F4;}
	.st14{clip-path:url(#SVGID_30_);fill:#5A67F4;}
	.st15{clip-path:url(#SVGID_32_);fill:#5A67F4;}
	.st16{clip-path:url(#SVGID_34_);fill:#5A67F4;}
	.st17{clip-path:url(#SVGID_36_);fill:#5A67F4;}
	.st18{clip-path:url(#SVGID_38_);fill:#5A67F4;}
	.st19{clip-path:url(#SVGID_40_);fill:#5A67F4;}
	.st20{clip-path:url(#SVGID_42_);}
	.st21{clip-path:url(#SVGID_44_);enable-background:new    ;}
	.st22{clip-path:url(#SVGID_46_);}
	.st23{clip-path:url(#SVGID_48_);}
	.st24{clip-path:url(#SVGID_50_);fill:#5A67F4;}
	.st25{clip-path:url(#SVGID_52_);}
	.st26{clip-path:url(#SVGID_54_);fill:#5A67F4;}
	.st27{clip-path:url(#SVGID_56_);}
	.st28{clip-path:url(#SVGID_58_);fill:#5A67F4;}
	.st29{clip-path:url(#SVGID_60_);}
	.st30{clip-path:url(#SVGID_62_);fill:#5A67F4;}
	.st31{clip-path:url(#SVGID_64_);}
	.st32{clip-path:url(#SVGID_66_);fill:#5A67F4;}
	.st33{clip-path:url(#SVGID_68_);}
	.st34{clip-path:url(#SVGID_70_);fill:#5A67F4;}
	.st35{clip-path:url(#SVGID_72_);}
	.st36{clip-path:url(#SVGID_74_);fill:#5A67F4;}
	.st37{clip-path:url(#SVGID_76_);}
	.st38{clip-path:url(#SVGID_78_);fill:#5A67F4;}
	.st39{clip-path:url(#SVGID_80_);}
	.st40{clip-path:url(#SVGID_82_);fill:#5A67F4;}
</style>
<g>
	<g>
		<defs>
			<path id="SVGID_1_" d="M216.5,48.3l-9.3,9.3l-13.9-13.9l9.3-9.3c1.3-1.3,3.3-1.3,4.5,0l9.3,9.3C217.8,45,217.8,47.1,216.5,48.3z
				 M204.3,69.8v146.7H34.5V46.6h146.8l-91.8,91.9l-0.6,0.6L82,164.5l-4,4c-1.3,1.3-1.3,3.3,0,4.6c0.6,0.6,1.5,1,2.3,1
				c0.8,0,1.7-0.3,2.3-1l4-4l25.4-6.9L198,76.1l1.5-1.5L204.3,69.8z M193.4,71.5l-83.1,83.2l-13.9-13.9l83.1-83.2L193.4,71.5z
				 M198,66.8L184.2,53l4.6-4.6l13.9,13.9L198,66.8z M93.5,147.1l10.5,10.5l-14.5,3.9L93.5,147.1z M221.1,39.2l-9.3-9.3
				c-3.8-3.8-10-3.8-13.8,0l-10.2,10.2H28V223h182.9V63.2l1-1l9.3-9.3C225,49.1,225,43,221.1,39.2z"/>
		</defs>
		<clipPath id="SVGID_2_">
			<use xlink:href="#SVGID_1_"  style="overflow:visible;"/>
		</clipPath>
		<rect x="19.1" y="18.1" class="st0" width="213.8" height="213.8"/>
	</g>
	<g>
		<defs>
			<polygon id="SVGID_3_" points="198.8,207.2 136.3,207.2 136.3,144.7 138.2,144.7 138.2,205.3 198.8,205.3 			"/>
		</defs>
		<clipPath id="SVGID_4_">
			<use xlink:href="#SVGID_3_"  style="overflow:visible;"/>
		</clipPath>
		<rect x="127.4" y="135.8" class="st1" width="80.3" height="80.3"/>
	</g>
	<g>
		<defs>
			<rect id="SVGID_5_" x="132.9" y="196.5" width="4.4" height="1.9"/>
		</defs>
		<clipPath id="SVGID_6_">
			<use xlink:href="#SVGID_5_"  style="overflow:visible;"/>
		</clipPath>
		<rect x="123.9" y="187.6" class="st2" width="22.2" height="19.7"/>
	</g>
	<g>
		<defs>
			<rect id="SVGID_7_" x="132.9" y="187.8" width="4.4" height="1.9"/>
		</defs>
		<clipPath id="SVGID_8_">
			<use xlink:href="#SVGID_7_"  style="overflow:visible;"/>
		</clipPath>
		<rect x="123.9" y="178.8" class="st3" width="22.2" height="19.7"/>
	</g>
	<g>
		<defs>
			<rect id="SVGID_9_" x="132.9" y="179" width="4.4" height="1.9"/>
		</defs>
		<clipPath id="SVGID_10_">
			<use xlink:href="#SVGID_9_"  style="overflow:visible;"/>
		</clipPath>
		<rect x="123.9" y="170.1" class="st4" width="22.2" height="19.7"/>
	</g>
	<g>
		<defs>
			<rect id="SVGID_11_" x="132.9" y="170.2" width="4.4" height="1.9"/>
		</defs>
		<clipPath id="SVGID_12_">
			<use xlink:href="#SVGID_11_"  style="overflow:visible;"/>
		</clipPath>
		<rect x="123.9" y="161.3" class="st5" width="22.2" height="19.7"/>
	</g>
	<g>
		<defs>
			<rect id="SVGID_13_" x="132.9" y="161.4" width="4.4" height="1.9"/>
		</defs>
		<clipPath id="SVGID_14_">
			<use xlink:href="#SVGID_13_"  style="overflow:visible;"/>
		</clipPath>
		<rect x="123.9" y="152.5" class="st6" width="22.2" height="19.7"/>
	</g>
	<g>
		<defs>
			<rect id="SVGID_15_" x="132.9" y="152.6" width="4.4" height="1.9"/>
		</defs>
		<clipPath id="SVGID_16_">
			<use xlink:href="#SVGID_15_"  style="overflow:visible;"/>
		</clipPath>
		<rect x="123.9" y="143.7" class="st7" width="22.2" height="19.7"/>
	</g>
	<g>
		<defs>
			<rect id="SVGID_17_" x="145.1" y="206.3" width="1.9" height="4.4"/>
		</defs>
		<clipPath id="SVGID_18_">
			<use xlink:href="#SVGID_17_"  style="overflow:visible;"/>
		</clipPath>
		<rect x="136.2" y="197.4" class="st8" width="19.7" height="22.2"/>
	</g>
	<g>
		<defs>
			<rect id="SVGID_19_" x="153.9" y="206.3" width="1.9" height="4.4"/>
		</defs>
		<clipPath id="SVGID_20_">
			<use xlink:href="#SVGID_19_"  style="overflow:visible;"/>
		</clipPath>
		<rect x="145" y="197.4" class="st9" width="19.7" height="22.2"/>
	</g>
	<g>
		<defs>
			<rect id="SVGID_21_" x="162.7" y="206.3" width="1.9" height="4.4"/>
		</defs>
		<clipPath id="SVGID_22_">
			<use xlink:href="#SVGID_21_"  style="overflow:visible;"/>
		</clipPath>
		<rect x="153.8" y="197.4" class="st10" width="19.7" height="22.2"/>
	</g>
	<g>
		<defs>
			<rect id="SVGID_23_" x="171.5" y="206.3" width="1.9" height="4.4"/>
		</defs>
		<clipPath id="SVGID_24_">
			<use xlink:href="#SVGID_23_"  style="overflow:visible;"/>
		</clipPath>
		<rect x="162.6" y="197.4" class="st11" width="19.7" height="22.2"/>
	</g>
	<g>
		<defs>
			<rect id="SVGID_25_" x="180.3" y="206.3" width="1.9" height="4.4"/>
		</defs>
		<clipPath id="SVGID_26_">
			<use xlink:href="#SVGID_25_"  style="overflow:visible;"/>
		</clipPath>
		<rect x="171.4" y="197.4" class="st12" width="19.7" height="22.2"/>
	</g>
	<g>
		<defs>
			<rect id="SVGID_27_" x="189.1" y="206.3" width="1.9" height="4.4"/>
		</defs>
		<clipPath id="SVGID_28_">
			<use xlink:href="#SVGID_27_"  style="overflow:visible;"/>
		</clipPath>
		<rect x="180.2" y="197.4" class="st13" width="19.7" height="22.2"/>
	</g>
	<g>
		<defs>
			<rect id="SVGID_29_" x="145.1" y="179.9" width="1.9" height="26.4"/>
		</defs>
		<clipPath id="SVGID_30_">
			<use xlink:href="#SVGID_29_"  style="overflow:visible;"/>
		</clipPath>
		<rect x="136.2" y="171" class="st14" width="19.7" height="44.2"/>
	</g>
	<g>
		<defs>
			<rect id="SVGID_31_" x="153.9" y="153.5" width="1.9" height="52.7"/>
		</defs>
		<clipPath id="SVGID_32_">
			<use xlink:href="#SVGID_31_"  style="overflow:visible;"/>
		</clipPath>
		<rect x="145" y="144.6" class="st15" width="19.7" height="70.6"/>
	</g>
	<g>
		<defs>
			<rect id="SVGID_33_" x="162.7" y="171.1" width="1.9" height="35.2"/>
		</defs>
		<clipPath id="SVGID_34_">
			<use xlink:href="#SVGID_33_"  style="overflow:visible;"/>
		</clipPath>
		<rect x="153.8" y="162.2" class="st16" width="19.7" height="53"/>
	</g>
	<g>
		<defs>
			<rect id="SVGID_35_" x="171.5" y="162.3" width="1.9" height="44"/>
		</defs>
		<clipPath id="SVGID_36_">
			<use xlink:href="#SVGID_35_"  style="overflow:visible;"/>
		</clipPath>
		<rect x="162.6" y="153.4" class="st17" width="19.7" height="61.8"/>
	</g>
	<g>
		<defs>
			<rect id="SVGID_37_" x="180.3" y="188.7" width="1.9" height="17.6"/>
		</defs>
		<clipPath id="SVGID_38_">
			<use xlink:href="#SVGID_37_"  style="overflow:visible;"/>
		</clipPath>
		<rect x="171.4" y="179.8" class="st18" width="19.7" height="35.4"/>
	</g>
	<g>
		<defs>
			<rect id="SVGID_39_" x="189.1" y="144.7" width="1.9" height="61.5"/>
		</defs>
		<clipPath id="SVGID_40_">
			<use xlink:href="#SVGID_39_"  style="overflow:visible;"/>
		</clipPath>
		<rect x="180.2" y="135.8" class="st19" width="19.7" height="79.4"/>
	</g>
</g>
<g>
	<g>
		<defs>
			<rect id="SVGID_41_" x="344" y="45.4" width="213.4" height="160.3"/>
		</defs>
		<clipPath id="SVGID_42_">
			<use xlink:href="#SVGID_41_"  style="overflow:visible;"/>
		</clipPath>
		<g class="st20">
			<defs>
				<rect id="SVGID_43_" x="-932.3" y="-531.1" width="2793" height="6883.7"/>
			</defs>
			<clipPath id="SVGID_44_">
				<use xlink:href="#SVGID_43_"  style="overflow:visible;"/>
			</clipPath>
		</g>
	</g>
	<g>
		<defs>
			<path id="SVGID_51_" d="M580.6,189.5h-60.4v-3.2c0-3.7,2-7.1,5.3-8.9l12.8-7c2.1-1.2,3.5-3.4,3.5-5.9v-5.8v0l-0.3-0.3l-0.1-0.1
				c0,0-0.1-0.1-0.2-0.3c0,0,0,0,0,0c-0.1-0.1-0.2-0.2-0.3-0.4c0,0,0,0,0,0c-0.2-0.3-0.5-0.7-0.8-1.1c0,0,0,0,0,0
				c-0.1-0.2-0.3-0.5-0.4-0.7c0,0,0,0,0-0.1c-0.3-0.5-0.7-1.2-1-1.8c0,0,0,0,0,0c-0.2-0.4-0.4-0.8-0.5-1.2c0-0.1-0.1-0.1-0.1-0.2
				c-0.1-0.2-0.2-0.4-0.2-0.6c0-0.1-0.1-0.1-0.1-0.2c-0.1-0.2-0.2-0.4-0.2-0.6c-0.1-0.4-0.3-0.8-0.4-1.2l-0.1-0.3c0,0,0-0.1,0-0.1
				c-0.1-0.5-0.3-0.9-0.4-1.4l-0.1-0.6l-0.5-0.3c-0.8-0.5-1.3-1.4-1.3-2.4v-5.7c0-0.8,0.3-1.6,1-2.1l0.5-0.4v-9v-0.5l0,0
				c0-1,0-4.2,2.3-6.9c2.4-2.7,6.4-4.1,12.1-4.1c5.6,0,9.7,1.4,12.1,4.1c2.8,3.2,2.3,7.2,2.3,7.2l0,9.1l0.5,0.4c0.6,0.6,1,1.3,1,2.1
				v5.7c0,1.3-0.8,2.4-2,2.7l-0.7,0.2l-0.2,0.7c-1,3-2.3,5.8-4.1,8.2c-0.4,0.6-0.8,1.1-1.2,1.6l-0.4,0.4v5.9c0,2.5,1.4,4.8,3.7,6
				l13.7,6.9c3.4,1.7,5.6,5.2,5.6,9V189.5z M517.3,186.3v3.2h-17.2V187c0-3.1,1.7-6,4.5-7.5l9.6-6c1.9-1,3.1-3,3.1-5.2v-5.2
				l-0.5-0.4c0,0-3.9-3.6-5-8.6l-0.1-0.6l-0.5-0.3c-0.7-0.4-1.1-1.1-1.1-1.9v-5c0-0.5,0.4-1.1,1-1.7l0.5-0.4l0-7.7
				c0-0.4,0.8-10.1,12.9-10.1c3.4,0,6.3,0.8,8.6,2.4v6.8c-0.9,1-1.4,2.4-1.4,3.8v5.7c0,0.4,0.1,0.9,0.1,1.3c0,0.2,0.1,0.3,0.2,0.5
				c0.1,0.2,0.1,0.5,0.3,0.7c0,0,0,0,0,0c0.4,0.8,0.9,1.4,1.6,2c0,0,0,0.1,0,0.1c0.1,0.3,0.2,0.7,0.3,1l0.1,0.4c0,0.1,0,0.1,0.1,0.2
				c0.1,0.2,0.1,0.3,0.2,0.5c0.1,0.3,0.2,0.5,0.3,0.8c0,0.1,0.1,0.2,0.1,0.3c0.1,0.3,0.2,0.6,0.4,0.9c0,0.1,0.1,0.1,0.1,0.2l0.1,0.2
				c0,0.1,0.1,0.2,0.1,0.2c0.1,0.3,0.3,0.6,0.4,0.9c0,0,0,0.1,0.1,0.1c0.1,0.2,0.2,0.3,0.3,0.5c0.2,0.3,0.3,0.6,0.5,0.8
				c0.1,0.1,0.1,0.3,0.2,0.4c0.2,0.4,0.4,0.7,0.6,1c0,0.1,0.1,0.1,0.1,0.2c0.3,0.5,0.6,1,0.9,1.3c0.1,0.1,0.1,0.2,0.2,0.2
				c0,0,0.1,0.1,0.1,0.1v4.8c0,1.4-0.8,2.7-2,3.3l-3.8,2.1l-0.7-0.1l-0.3,0.6l-8.1,4.4C519.9,177.2,517.3,181.6,517.3,186.3z
				 M576.3,175l-13.7-6.9c-1.3-0.6-2.1-2-2.1-3.4v-4.9c0.3-0.4,0.7-0.9,1-1.4c1.8-2.5,3.2-5.3,4.2-8.3c2-0.9,3.3-2.9,3.3-5.2v-5.7
				c0-1.4-0.5-2.7-1.4-3.8v-7.6c0.1-0.8,0.4-5.5-3-9.4c-3-3.4-7.7-5.1-14.2-5.1c-6.5,0-11.3,1.7-14.2,5.1c-2.1,2.4-2.8,5-3,6.9
				c-2.5-1.3-5.4-1.9-8.7-1.9c-14.9,0-15.8,12.7-15.8,12.9v6.6c-0.9,1-1.4,2.2-1.4,3.3v5c0,1.6,0.7,3,1.9,4c1.2,4.5,4.1,7.8,5.2,9
				v3.9c0,1.1-0.6,2.2-1.7,2.8l-9.6,6c-3.7,2-5.9,5.8-5.9,10v5.5h20.1h2.9h63.2v-5.8C583.5,181.7,580.7,177.2,576.3,175z"/>
		</defs>
		<clipPath id="SVGID_46_">
			<use xlink:href="#SVGID_51_"  style="overflow:visible;"/>
		</clipPath>
		<g class="st22">
			<defs>
				<rect id="SVGID_53_" x="-932.3" y="-531.1" width="2793" height="6883.7"/>
			</defs>
			<clipPath id="SVGID_48_">
				<use xlink:href="#SVGID_53_"  style="overflow:visible;"/>
			</clipPath>
		</g>
	</g>
</g>
<g>
	<g>
		<defs>
			<path id="SVGID_55_" d="M875.8,171.2h-90h-21.6h-90v-129h201.6V171.2z M796.6,196.2v3.6h-43.2v-3.6h18v-17.9h7.2v17.9H796.6z
				 M879.4,35H670.6c-2,0-3.6,1.6-3.6,3.6v136.2c0,2,1.6,3.6,3.6,3.6h93.6v10.7h-18V207h57.6v-17.9h-18v-10.7h93.6
				c2,0,3.6-1.6,3.6-3.6V38.6C883,36.6,881.4,35,879.4,35z"/>
		</defs>
		<clipPath id="SVGID_50_">
			<use xlink:href="#SVGID_55_"  style="overflow:visible;"/>
		</clipPath>
		<g style="clip-path:url(#SVGID_50_);">
			<defs>
				<rect id="SVGID_57_" x="-1359" y="-553" width="2880" height="7098"/>
			</defs>
			<clipPath id="SVGID_52_">
				<use xlink:href="#SVGID_57_"  style="overflow:visible;"/>
			</clipPath>
		</g>
	</g>
	<g>
		<defs>
			<path id="SVGID_59_" d="M857.8,63.7h-7.2v-7.2h7.2V63.7z M865,49.3h-21.6v21.5H865V49.3z"/>
		</defs>
		<clipPath id="SVGID_54_">
			<use xlink:href="#SVGID_59_"  style="overflow:visible;"/>
		</clipPath>
		<g style="clip-path:url(#SVGID_54_);">
			<defs>
				<rect id="SVGID_61_" x="-1359" y="-553" width="2880" height="7098"/>
			</defs>
			<clipPath id="SVGID_56_">
				<use xlink:href="#SVGID_61_"  style="overflow:visible;"/>
			</clipPath>
		</g>
	</g>
	<g>
		<defs>
			<path id="SVGID_63_" d="M703,153.2h-10.8v-10.8H703V153.2z M710.2,135.3H685v25.1h25.2V135.3z"/>
		</defs>
		<clipPath id="SVGID_58_">
			<use xlink:href="#SVGID_63_"  style="overflow:visible;"/>
		</clipPath>
		<g style="clip-path:url(#SVGID_58_);">
			<defs>
				<rect id="SVGID_65_" x="-1359" y="-553" width="2880" height="7098"/>
			</defs>
			<clipPath id="SVGID_60_">
				<use xlink:href="#SVGID_65_"  style="overflow:visible;"/>
			</clipPath>
		</g>
	</g>
	<g>
		<defs>
			<path id="SVGID_67_" d="M859.3,203.9h-39.4c-2.1,0-3.8-1.7-3.8-3.8v-11.9h46.9v11.9C863.1,202.2,861.4,203.9,859.3,203.9z
				 M819.9,116.1h39.4c2.1,0,3.8,1.7,3.8,3.8v2.5h-46.9v-2.5C816.1,117.8,817.8,116.1,819.9,116.1z M816.1,125.5h46.9v59.5h-46.9
				V125.5z M859.3,113h-39.4c-3.8,0-6.9,3.1-6.9,6.9v80.2c0,3.8,3.1,6.9,6.9,6.9h39.4c3.8,0,6.9-3.1,6.9-6.9v-80.2
				C866.2,116.1,863.1,113,859.3,113z"/>
		</defs>
		<clipPath id="SVGID_62_">
			<use xlink:href="#SVGID_67_"  style="overflow:visible;"/>
		</clipPath>
		<g style="clip-path:url(#SVGID_62_);">
			<defs>
				<rect id="SVGID_69_" x="-1359" y="-553" width="2880" height="7098"/>
			</defs>
			<clipPath id="SVGID_64_">
				<use xlink:href="#SVGID_69_"  style="overflow:visible;"/>
			</clipPath>
		</g>
	</g>
	<g>
		<defs>
			<path id="SVGID_71_" d="M839.6,199.2c-1.7,0-3.1-1.4-3.1-3.1c0-1.7,1.4-3.1,3.1-3.1s3.1,1.4,3.1,3.1
				C842.7,197.8,841.3,199.2,839.6,199.2z M839.6,189.8c-3.5,0-6.3,2.8-6.3,6.3c0,3.5,2.8,6.3,6.3,6.3c3.5,0,6.3-2.8,6.3-6.3
				C845.9,192.6,843,189.8,839.6,189.8z"/>
		</defs>
		<clipPath id="SVGID_66_">
			<use xlink:href="#SVGID_71_"  style="overflow:visible;"/>
		</clipPath>
		<g style="clip-path:url(#SVGID_66_);">
			<defs>
				<rect id="SVGID_73_" x="-1359" y="-553" width="2880" height="7098"/>
			</defs>
			<clipPath id="SVGID_68_">
				<use xlink:href="#SVGID_73_"  style="overflow:visible;"/>
			</clipPath>
		</g>
	</g>
	<g>
		<defs>
			<path id="SVGID_75_" d="M833.3,120.8h6.3c0.9,0,1.6-0.7,1.6-1.6c0-0.9-0.7-1.6-1.6-1.6h-6.3c-0.9,0-1.6,0.7-1.6,1.6
				C831.8,120.1,832.5,120.8,833.3,120.8z"/>
		</defs>
		<clipPath id="SVGID_70_">
			<use xlink:href="#SVGID_75_"  style="overflow:visible;"/>
		</clipPath>
		<g style="clip-path:url(#SVGID_70_);">
			<defs>
				<rect id="SVGID_77_" x="-1359" y="-553" width="2880" height="7098"/>
			</defs>
			<clipPath id="SVGID_72_">
				<use xlink:href="#SVGID_77_"  style="overflow:visible;"/>
			</clipPath>
		</g>
	</g>
	<g>
		<defs>
			<path id="SVGID_79_" d="M844.3,120.8h1.6c0.9,0,1.6-0.7,1.6-1.6c0-0.9-0.7-1.6-1.6-1.6h-1.6c-0.9,0-1.6,0.7-1.6,1.6
				C842.7,120.1,843.4,120.8,844.3,120.8z"/>
		</defs>
		<clipPath id="SVGID_74_">
			<use xlink:href="#SVGID_79_"  style="overflow:visible;"/>
		</clipPath>
		<g style="clip-path:url(#SVGID_74_);">
			<defs>
				<rect id="SVGID_81_" x="-1359" y="-553" width="2880" height="7098"/>
			</defs>
			<clipPath id="SVGID_76_">
				<use xlink:href="#SVGID_81_"  style="overflow:visible;"/>
			</clipPath>
		</g>
	</g>
</g>
</svg>
