<?xml version="1.0" encoding="utf-8"?>
<!-- Generator: Adobe Illustrator 21.0.0, SVG Export Plug-In . SVG Version: 6.00 Build 0)  -->
<svg version="1.1" id="Layer_1" xmlns="http://www.w3.org/2000/svg" xmlns:xlink="http://www.w3.org/1999/xlink" x="0px" y="0px"
	 viewBox="0 0 250 250" style="enable-background:new 0 0 250 250;" xml:space="preserve">
<style type="text/css">
	.st0{clip-path:url(#SVGID_2_);fill:#5A67F4;}
	.st1{clip-path:url(#SVGID_4_);fill:#5A67F4;}
	.st2{clip-path:url(#SVGID_6_);fill:#5A67F4;}
	.st3{clip-path:url(#SVGID_8_);fill:#5A67F4;}
	.st4{clip-path:url(#SVGID_10_);fill:#5A67F4;}
	.st5{clip-path:url(#SVGID_12_);fill:#5A67F4;}
	.st6{clip-path:url(#SVGID_14_);fill:#5A67F4;}
	.st7{clip-path:url(#SVGID_16_);fill:#5A67F4;}
	.st8{clip-path:url(#SVGID_18_);fill:#5A67F4;}
	.st9{clip-path:url(#SVGID_20_);fill:#5A67F4;}
	.st10{clip-path:url(#SVGID_22_);fill:#5A67F4;}
	.st11{clip-path:url(#SVGID_24_);fill:#5A67F4;}
	.st12{clip-path:url(#SVGID_26_);fill:#5A67F4;}
	.st13{clip-path:url(#SVGID_28_);fill:#5A67F4;}
	.st14{clip-path:url(#SVGID_30_);fill:#5A67F4;}
	.st15{clip-path:url(#SVGID_32_);fill:#5A67F4;}
	.st16{clip-path:url(#SVGID_34_);fill:#5A67F4;}
	.st17{clip-path:url(#SVGID_36_);fill:#5A67F4;}
	.st18{clip-path:url(#SVGID_38_);fill:#5A67F4;}
	.st19{clip-path:url(#SVGID_40_);fill:#5A67F4;}
	.st20{clip-path:url(#SVGID_42_);}
	.st21{clip-path:url(#SVGID_44_);enable-background:new    ;}
	.st22{clip-path:url(#SVGID_46_);}
	.st23{clip-path:url(#SVGID_48_);}
	.st24{clip-path:url(#SVGID_50_);fill:#5A67F4;}
	.st25{clip-path:url(#SVGID_52_);}
	.st26{clip-path:url(#SVGID_54_);fill:#5A67F4;}
	.st27{clip-path:url(#SVGID_56_);}
	.st28{clip-path:url(#SVGID_58_);fill:#5A67F4;}
	.st29{clip-path:url(#SVGID_60_);}
	.st30{clip-path:url(#SVGID_62_);fill:#5A67F4;}
	.st31{clip-path:url(#SVGID_64_);}
	.st32{clip-path:url(#SVGID_66_);fill:#5A67F4;}
	.st33{clip-path:url(#SVGID_68_);}
	.st34{clip-path:url(#SVGID_70_);fill:#5A67F4;}
	.st35{clip-path:url(#SVGID_72_);}
	.st36{clip-path:url(#SVGID_74_);fill:#5A67F4;}
	.st37{clip-path:url(#SVGID_76_);}
	.st38{clip-path:url(#SVGID_78_);fill:#5A67F4;}
	.st39{clip-path:url(#SVGID_80_);}
	.st40{clip-path:url(#SVGID_82_);fill:#5A67F4;}
</style>
<g>
	<g>
		<defs>
			<rect id="SVGID_41_" x="5" y="45.4" width="213.4" height="160.3"/>
		</defs>
		<clipPath id="SVGID_2_">
			<use xlink:href="#SVGID_41_"  style="overflow:visible;"/>
		</clipPath>
		<g style="clip-path:url(#SVGID_2_);">
			<defs>
				<rect id="SVGID_43_" x="-1271.3" y="-531.1" width="2793" height="6883.7"/>
			</defs>
			<clipPath id="SVGID_4_">
				<use xlink:href="#SVGID_43_"  style="overflow:visible;"/>
			</clipPath>
			<g style="clip-path:url(#SVGID_4_);enable-background:new    ;">
				<g>
					<defs>
						<rect id="SVGID_45_" x="3.1" y="45" width="217.2" height="161"/>
					</defs>
					<clipPath id="SVGID_6_">
						<use xlink:href="#SVGID_45_"  style="overflow:visible;"/>
					</clipPath>
					<g style="clip-path:url(#SVGID_6_);">
						<defs>
							<path id="SVGID_47_" d="M136,195.2l-44.2-63.4l114-73.1L136,195.2z M84.2,179.8l4.9-39.4l16.2,23.2L84.2,179.8z M192.9,58.6
								L86.2,126.9l-65.3-21.4L192.9,58.6z M217.6,46.6c-0.8-1-2-1.4-3.2-1.3c-0.3,0-0.5,0.1-0.8,0.1l-206,56.2
								c-1.5,0.4-2.6,1.8-2.6,3.3c0,1.6,1,3,2.4,3.5l75.4,24.8l-6.7,54.1c-0.2,1.4,0.5,2.8,1.8,3.5c0.6,0.3,1.2,0.5,1.8,0.5
								c0.8,0,1.5-0.2,2.2-0.7l27.6-21.2l24.2,34.6c0.7,1,1.8,1.5,2.9,1.5c0.1,0,0.2,0,0.2,0c1.2-0.1,2.3-0.8,2.9-1.9L218,50.5
								C218.6,49.3,218.5,47.7,217.6,46.6z"/>
						</defs>
						<clipPath id="SVGID_8_">
							<use xlink:href="#SVGID_47_"  style="overflow:visible;"/>
						</clipPath>
						<g style="clip-path:url(#SVGID_8_);">
							<defs>
								<rect id="SVGID_49_" x="5" y="45" width="213.4" height="161"/>
							</defs>
							<clipPath id="SVGID_10_">
								<use xlink:href="#SVGID_49_"  style="overflow:visible;"/>
							</clipPath>
							<rect x="-4.7" y="35.7" class="st4" width="232.8" height="179.7"/>
						</g>
					</g>
				</g>
			</g>
		</g>
	</g>
	<g>
		<defs>
			<path id="SVGID_51_" d="M241.6,189.5h-60.4v-3.2c0-3.7,2-7.1,5.3-8.9l12.8-7c2.1-1.2,3.5-3.4,3.5-5.9v-5.8v0l-0.3-0.3l-0.1-0.1
				c0,0-0.1-0.1-0.2-0.3c0,0,0,0,0,0c-0.1-0.1-0.2-0.2-0.3-0.4c0,0,0,0,0,0c-0.2-0.3-0.5-0.7-0.8-1.1c0,0,0,0,0,0
				c-0.1-0.2-0.3-0.5-0.4-0.7c0,0,0,0,0-0.1c-0.3-0.5-0.7-1.2-1-1.8c0,0,0,0,0,0c-0.2-0.4-0.4-0.8-0.5-1.2c0-0.1-0.1-0.1-0.1-0.2
				c-0.1-0.2-0.2-0.4-0.2-0.6c0-0.1-0.1-0.1-0.1-0.2c-0.1-0.2-0.2-0.4-0.2-0.6c-0.1-0.4-0.3-0.8-0.4-1.2l-0.1-0.3c0,0,0-0.1,0-0.1
				c-0.1-0.5-0.3-0.9-0.4-1.4l-0.1-0.6l-0.5-0.3c-0.8-0.5-1.3-1.4-1.3-2.4v-5.7c0-0.8,0.3-1.6,1-2.1l0.5-0.4v-9v-0.5l0,0
				c0-1,0-4.2,2.3-6.9c2.4-2.7,6.4-4.1,12.1-4.1c5.6,0,9.7,1.4,12.1,4.1c2.8,3.2,2.3,7.2,2.3,7.2l0,9.1l0.5,0.4c0.6,0.6,1,1.3,1,2.1
				v5.7c0,1.3-0.8,2.4-2,2.7l-0.7,0.2l-0.2,0.7c-1,3-2.3,5.8-4.1,8.2c-0.4,0.6-0.8,1.1-1.2,1.6l-0.4,0.4v5.9c0,2.5,1.4,4.8,3.7,6
				l13.7,6.9c3.4,1.7,5.6,5.2,5.6,9V189.5z M178.3,186.3v3.2h-17.2V187c0-3.1,1.7-6,4.5-7.5l9.6-6c1.9-1,3.1-3,3.1-5.2v-5.2
				l-0.5-0.4c0,0-3.9-3.6-5-8.6l-0.1-0.6l-0.5-0.3c-0.7-0.4-1.1-1.1-1.1-1.9v-5c0-0.5,0.4-1.1,1-1.7l0.5-0.4l0-7.7
				c0-0.4,0.8-10.1,12.9-10.1c3.4,0,6.3,0.8,8.6,2.4v6.8c-0.9,1-1.4,2.4-1.4,3.8v5.7c0,0.4,0.1,0.9,0.1,1.3c0,0.2,0.1,0.3,0.2,0.5
				c0.1,0.2,0.1,0.5,0.3,0.7c0,0,0,0,0,0c0.4,0.8,0.9,1.4,1.6,2c0,0,0,0.1,0,0.1c0.1,0.3,0.2,0.7,0.3,1l0.1,0.4c0,0.1,0,0.1,0.1,0.2
				c0.1,0.2,0.1,0.3,0.2,0.5c0.1,0.3,0.2,0.5,0.3,0.8c0,0.1,0.1,0.2,0.1,0.3c0.1,0.3,0.2,0.6,0.4,0.9c0,0.1,0.1,0.1,0.1,0.2l0.1,0.2
				c0,0.1,0.1,0.2,0.1,0.2c0.1,0.3,0.3,0.6,0.4,0.9c0,0,0,0.1,0.1,0.1c0.1,0.2,0.2,0.3,0.3,0.5c0.2,0.3,0.3,0.6,0.5,0.8
				c0.1,0.1,0.1,0.3,0.2,0.4c0.2,0.4,0.4,0.7,0.6,1c0,0.1,0.1,0.1,0.1,0.2c0.3,0.5,0.6,1,0.9,1.3c0.1,0.1,0.1,0.2,0.2,0.2
				c0,0,0.1,0.1,0.1,0.1v4.8c0,1.4-0.8,2.7-2,3.3l-3.8,2.1l-0.7-0.1l-0.3,0.6l-8.1,4.4C180.9,177.2,178.3,181.6,178.3,186.3z
				 M237.3,175l-13.7-6.9c-1.3-0.6-2.1-2-2.1-3.4v-4.9c0.3-0.4,0.7-0.9,1-1.4c1.8-2.5,3.2-5.3,4.2-8.3c2-0.9,3.3-2.9,3.3-5.2v-5.7
				c0-1.4-0.5-2.7-1.4-3.8v-7.6c0.1-0.8,0.4-5.5-3-9.4c-3-3.4-7.7-5.1-14.2-5.1c-6.5,0-11.3,1.7-14.2,5.1c-2.1,2.4-2.8,5-3,6.9
				c-2.5-1.3-5.4-1.9-8.7-1.9c-14.9,0-15.8,12.7-15.8,12.9v6.6c-0.9,1-1.4,2.2-1.4,3.3v5c0,1.6,0.7,3,1.9,4c1.2,4.5,4.1,7.8,5.2,9
				v3.9c0,1.1-0.6,2.2-1.7,2.8l-9.6,6c-3.7,2-5.9,5.8-5.9,10v5.5h20.1h2.9h63.2v-5.8C244.5,181.7,241.7,177.2,237.3,175z"/>
		</defs>
		<clipPath id="SVGID_12_">
			<use xlink:href="#SVGID_51_"  style="overflow:visible;"/>
		</clipPath>
		<g style="clip-path:url(#SVGID_12_);">
			<defs>
				<rect id="SVGID_53_" x="-1271.3" y="-531.1" width="2793" height="6883.7"/>
			</defs>
			<clipPath id="SVGID_14_">
				<use xlink:href="#SVGID_53_"  style="overflow:visible;"/>
			</clipPath>
			<rect x="148.5" y="103.7" class="st6" width="105.6" height="98.4"/>
		</g>
	</g>
</g>
<g>
	<g>
		<defs>
			<path id="SVGID_55_" d="M536.8,171.2h-90h-21.6h-90v-129h201.6V171.2z M457.6,196.2v3.6h-43.2v-3.6h18v-17.9h7.2v17.9H457.6z
				 M540.4,35H331.6c-2,0-3.6,1.6-3.6,3.6v136.2c0,2,1.6,3.6,3.6,3.6h93.6v10.7h-18V207h57.6v-17.9h-18v-10.7h93.6
				c2,0,3.6-1.6,3.6-3.6V38.6C544,36.6,542.4,35,540.4,35z"/>
		</defs>
		<clipPath id="SVGID_16_">
			<use xlink:href="#SVGID_55_"  style="overflow:visible;"/>
		</clipPath>
		<g style="clip-path:url(#SVGID_16_);">
			<defs>
				<rect id="SVGID_57_" x="-1698" y="-553" width="2880" height="7098"/>
			</defs>
			<clipPath id="SVGID_18_">
				<use xlink:href="#SVGID_57_"  style="overflow:visible;"/>
			</clipPath>
		</g>
	</g>
	<g>
		<defs>
			<path id="SVGID_59_" d="M518.8,63.7h-7.2v-7.2h7.2V63.7z M526,49.3h-21.6v21.5H526V49.3z"/>
		</defs>
		<clipPath id="SVGID_20_">
			<use xlink:href="#SVGID_59_"  style="overflow:visible;"/>
		</clipPath>
		<g style="clip-path:url(#SVGID_20_);">
			<defs>
				<rect id="SVGID_61_" x="-1698" y="-553" width="2880" height="7098"/>
			</defs>
			<clipPath id="SVGID_22_">
				<use xlink:href="#SVGID_61_"  style="overflow:visible;"/>
			</clipPath>
		</g>
	</g>
	<g>
		<defs>
			<path id="SVGID_63_" d="M364,153.2h-10.8v-10.8H364V153.2z M371.2,135.3H346v25.1h25.2V135.3z"/>
		</defs>
		<clipPath id="SVGID_24_">
			<use xlink:href="#SVGID_63_"  style="overflow:visible;"/>
		</clipPath>
		<g style="clip-path:url(#SVGID_24_);">
			<defs>
				<rect id="SVGID_65_" x="-1698" y="-553" width="2880" height="7098"/>
			</defs>
			<clipPath id="SVGID_26_">
				<use xlink:href="#SVGID_65_"  style="overflow:visible;"/>
			</clipPath>
		</g>
	</g>
	<g>
		<defs>
			<path id="SVGID_67_" d="M520.3,203.9h-39.4c-2.1,0-3.8-1.7-3.8-3.8v-11.9h46.9v11.9C524.1,202.2,522.4,203.9,520.3,203.9z
				 M480.9,116.1h39.4c2.1,0,3.8,1.7,3.8,3.8v2.5h-46.9v-2.5C477.1,117.8,478.8,116.1,480.9,116.1z M477.1,125.5h46.9v59.5h-46.9
				V125.5z M520.3,113h-39.4c-3.8,0-6.9,3.1-6.9,6.9v80.2c0,3.8,3.1,6.9,6.9,6.9h39.4c3.8,0,6.9-3.1,6.9-6.9v-80.2
				C527.2,116.1,524.1,113,520.3,113z"/>
		</defs>
		<clipPath id="SVGID_28_">
			<use xlink:href="#SVGID_67_"  style="overflow:visible;"/>
		</clipPath>
		<g style="clip-path:url(#SVGID_28_);">
			<defs>
				<rect id="SVGID_69_" x="-1698" y="-553" width="2880" height="7098"/>
			</defs>
			<clipPath id="SVGID_30_">
				<use xlink:href="#SVGID_69_"  style="overflow:visible;"/>
			</clipPath>
		</g>
	</g>
	<g>
		<defs>
			<path id="SVGID_71_" d="M500.6,199.2c-1.7,0-3.1-1.4-3.1-3.1c0-1.7,1.4-3.1,3.1-3.1c1.7,0,3.1,1.4,3.1,3.1
				C503.7,197.8,502.3,199.2,500.6,199.2z M500.6,189.8c-3.5,0-6.3,2.8-6.3,6.3c0,3.5,2.8,6.3,6.3,6.3c3.5,0,6.3-2.8,6.3-6.3
				C506.9,192.6,504,189.8,500.6,189.8z"/>
		</defs>
		<clipPath id="SVGID_32_">
			<use xlink:href="#SVGID_71_"  style="overflow:visible;"/>
		</clipPath>
		<g style="clip-path:url(#SVGID_32_);">
			<defs>
				<rect id="SVGID_73_" x="-1698" y="-553" width="2880" height="7098"/>
			</defs>
			<clipPath id="SVGID_34_">
				<use xlink:href="#SVGID_73_"  style="overflow:visible;"/>
			</clipPath>
		</g>
	</g>
	<g>
		<defs>
			<path id="SVGID_75_" d="M494.3,120.8h6.3c0.9,0,1.6-0.7,1.6-1.6c0-0.9-0.7-1.6-1.6-1.6h-6.3c-0.9,0-1.6,0.7-1.6,1.6
				C492.8,120.1,493.5,120.8,494.3,120.8z"/>
		</defs>
		<clipPath id="SVGID_36_">
			<use xlink:href="#SVGID_75_"  style="overflow:visible;"/>
		</clipPath>
		<g style="clip-path:url(#SVGID_36_);">
			<defs>
				<rect id="SVGID_77_" x="-1698" y="-553" width="2880" height="7098"/>
			</defs>
			<clipPath id="SVGID_38_">
				<use xlink:href="#SVGID_77_"  style="overflow:visible;"/>
			</clipPath>
		</g>
	</g>
	<g>
		<defs>
			<path id="SVGID_79_" d="M505.3,120.8h1.6c0.9,0,1.6-0.7,1.6-1.6c0-0.9-0.7-1.6-1.6-1.6h-1.6c-0.9,0-1.6,0.7-1.6,1.6
				C503.7,120.1,504.4,120.8,505.3,120.8z"/>
		</defs>
		<clipPath id="SVGID_40_">
			<use xlink:href="#SVGID_79_"  style="overflow:visible;"/>
		</clipPath>
		<g style="clip-path:url(#SVGID_40_);">
			<defs>
				<rect id="SVGID_81_" x="-1698" y="-553" width="2880" height="7098"/>
			</defs>
			<clipPath id="SVGID_42_">
				<use xlink:href="#SVGID_81_"  style="overflow:visible;"/>
			</clipPath>
		</g>
	</g>
</g>
</svg>
