<?xml version="1.0" encoding="utf-8"?>
<!-- Generator: Adobe Illustrator 21.0.0, SVG Export Plug-In . SVG Version: 6.00 Build 0)  -->
<svg version="1.1" id="Layer_1" xmlns="http://www.w3.org/2000/svg" xmlns:xlink="http://www.w3.org/1999/xlink" x="0px" y="0px"
	 viewBox="0 0 600 150" style="enable-background:new 0 0 600 150;" xml:space="preserve">
<style type="text/css">
	.st0{opacity:0.1437;enable-background:new    ;}
	.st1{clip-path:url(#SVGID_2_);}
	.st2{clip-path:url(#SVGID_4_);fill:none;stroke:#FB4C4E;stroke-width:2;stroke-miterlimit:10;}
	.st3{clip-path:url(#SVGID_4_);fill:none;stroke:#FDC634;stroke-width:2;stroke-miterlimit:10;}
	.st4{clip-path:url(#SVGID_4_);fill:none;stroke:#98CA29;stroke-width:2;stroke-miterlimit:10;}
	.st5{clip-path:url(#SVGID_4_);fill:none;stroke:#64C0F7;stroke-width:2;stroke-miterlimit:10;}
	.st6{clip-path:url(#SVGID_4_);fill:none;stroke:#179FB5;stroke-width:2;stroke-miterlimit:10;}
</style>
<g class="st0">
	<g>
		<defs>
			<rect id="SVGID_1_" x="-14" y="0.2" width="629" height="138.8"/>
		</defs>
		<clipPath id="SVGID_2_">
			<use xlink:href="#SVGID_1_"  style="overflow:visible;"/>
		</clipPath>
		<g class="st1">
			<defs>
				<rect id="SVGID_3_" x="-1.4" y="4" width="603.8" height="132.1"/>
			</defs>
			<clipPath id="SVGID_4_">
				<use xlink:href="#SVGID_3_"  style="overflow:visible;"/>
			</clipPath>
			<path class="st2" d="M37.5,91.8H-9.8H37.5z"/>
			<path class="st2" d="M84.7,76.1H-9.8H84.7z"/>
			<path class="st2" d="M53.2,60.4h-63H53.2z"/>
			<path class="st2" d="M69,44.6H-9.8H69z"/>
			<path class="st2" d="M21.7,28.9H-9.8H21.7z"/>
			<path class="st2" d="M100.5,13.2H-9.8H100.5z"/>
			<path class="st2" d="M21.7,123.2H-9.8H21.7z"/>
			<path class="st2" d="M69,107.5H-9.8H69z"/>
			<ellipse class="st3" cx="89.3" cy="120.9" rx="10.2" ry="10.2"/>
			<ellipse class="st3" cx="109.7" cy="80.1" rx="10.2" ry="10.2"/>
			<ellipse class="st3" cx="191.3" cy="18.8" rx="10.2" ry="10.2"/>
			<path class="st3" d="M181.1,80c0,5.6-4.6,10.2-10.2,10.2c-5.6,0-10.2-4.6-10.2-10.2c0-5.6,4.6-10.2,10.2-10.2
				C176.6,69.8,181.1,74.4,181.1,80z"/>
			<path class="st3" d="M174.1,70.4l14-42L174.1,70.4z"/>
			<path class="st3" d="M93.8,111.8l11.3-22.6L93.8,111.8z"/>
			<path class="st3" d="M119.9,80h40.8H119.9z"/>
			<rect x="243.5" y="58.5" class="st4" width="18" height="72.1"/>
			<rect x="243.5" y="4.4" class="st4" width="18" height="54.1"/>
			<rect x="315.6" y="58.5" class="st4" width="18" height="72.1"/>
			<rect x="315.6" y="22.4" class="st4" width="18" height="36.1"/>
			<rect x="207.4" y="94.5" class="st4" width="18" height="36.1"/>
			<rect x="207.4" y="58.5" class="st4" width="18" height="36.1"/>
			<rect x="279.5" y="94.5" class="st4" width="18" height="36.1"/>
			<rect x="279.5" y="40.5" class="st4" width="18" height="54.1"/>
			<polygon class="st5" points="351.2,31.2 374.3,134.8 420.3,54.2 466.4,123.3 420.3,54.2 374.3,134.8 			"/>
			<polygon class="st5" points="477.9,8.2 431.8,111.8 385.8,42.7 351.2,77.2 385.8,42.7 431.8,111.8 			"/>
			<path class="st6" d="M579.3,114.7l-38.5-38.5V21.7c-30.1,0-54.5,24.4-54.5,54.5c0,30.1,24.4,54.5,54.5,54.5
				C555.8,130.7,569.4,124.6,579.3,114.7z"/>
			<path class="st6" d="M550.5,6.8c15.4,2.1,29.3,9.3,39.8,19.8l-39.8,39.8V6.8z"/>
			<path class="st6" d="M596.7,118.4l-42.2-42.2L596.7,34c8.9,11.7,14.1,26.3,14.1,42.2C610.8,92,605.5,106.6,596.7,118.4z"/>
		</g>
	</g>
</g>
</svg>
