<?xml version="1.0" encoding="utf-8"?>
<!-- Generator: Adobe Illustrator 21.0.0, SVG Export Plug-In . SVG Version: 6.00 Build 0)  -->
<svg version="1.1" id="Layer_1" xmlns="http://www.w3.org/2000/svg" xmlns:xlink="http://www.w3.org/1999/xlink" x="0px" y="0px"
	 viewBox="0 0 100 100" style="enable-background:new 0 0 100 100;" xml:space="preserve">
<style type="text/css">
	.st0{clip-path:url(#SVGID_2_);}
	.st1{clip-path:url(#SVGID_4_);fill:#F9F7FB;}
	.st2{clip-path:url(#SVGID_6_);}
	.st3{clip-path:url(#SVGID_8_);fill:#F9F7FB;}
</style>
<g>
	<g>
		<defs>
			<path id="SVGID_1_" d="M40.6,70.5V29.5L70.7,50L40.6,70.5z M74.4,48.7L39.9,25.2c-0.5-0.3-1.1-0.4-1.6-0.1
				c-0.5,0.3-0.8,0.8-0.8,1.4v47c0,0.6,0.3,1.1,0.8,1.4c0.2,0.1,0.5,0.2,0.7,0.2c0.3,0,0.6-0.1,0.9-0.3l34.5-23.5
				c0.4-0.3,0.7-0.8,0.7-1.3S74.8,49,74.4,48.7z"/>
		</defs>
		<clipPath id="SVGID_2_">
			<use xlink:href="#SVGID_1_"  style="overflow:visible;"/>
		</clipPath>
		<g class="st0">
			<defs>
				<rect id="SVGID_3_" x="-543.7" y="-542.9" width="1187.4" height="2926.4"/>
			</defs>
			<clipPath id="SVGID_4_">
				<use xlink:href="#SVGID_3_"  style="overflow:visible;"/>
			</clipPath>
			<rect x="33.3" y="20.8" class="st1" width="45.8" height="58.4"/>
		</g>
	</g>
	<g>
		<defs>
			<path id="SVGID_5_" d="M50,93.9C25.8,93.9,6.1,74.2,6.1,50S25.8,6.1,50,6.1S93.9,25.8,93.9,50S74.2,93.9,50,93.9z M50,3
				C24.1,3,3,24.1,3,50s21.1,47,47,47s47-21.1,47-47S75.9,3,50,3z"/>
		</defs>
		<clipPath id="SVGID_6_">
			<use xlink:href="#SVGID_5_"  style="overflow:visible;"/>
		</clipPath>
		<g class="st2">
			<defs>
				<rect id="SVGID_7_" x="-543.7" y="-542.9" width="1187.4" height="2926.4"/>
			</defs>
			<clipPath id="SVGID_8_">
				<use xlink:href="#SVGID_7_"  style="overflow:visible;"/>
			</clipPath>
			<rect x="-1.1" y="-1.1" class="st3" width="102.2" height="102.2"/>
		</g>
	</g>
</g>
</svg>
