<?xml version="1.0" encoding="utf-8"?>
<!-- Generator: Adobe Illustrator 21.0.0, SVG Export Plug-In . SVG Version: 6.00 Build 0)  -->
<svg version="1.1" id="Layer_1" xmlns="http://www.w3.org/2000/svg" xmlns:xlink="http://www.w3.org/1999/xlink" x="0px" y="0px"
	 viewBox="0 0 350 75" style="enable-background:new 0 0 350 75;" xml:space="preserve">
<style type="text/css">
	.st0{fill:#F9F7FB;}
	.st1{fill:#5A67F4;}
	.st2{fill:#F9F7FB;stroke:#F9F7FB;stroke-miterlimit:10;}
</style>
<g>
	<path class="st0" d="M72.5,2.7H6.3c-1.2,0-2.1,0.9-2.1,2.1V71c0,1.2,0.9,2.1,2.1,2.1h66.2c1.2,0,2.1-0.9,2.1-2.1V4.7
		C74.6,3.6,73.7,2.7,72.5,2.7z"/>
</g>
<g>
	<path class="st1" d="M46.3,33.9c1.1,0,1.9-0.9,1.9-1.9c0-1.1-0.9-1.9-1.9-1.9c-8.6,0-15.6,7-15.6,15.6c0,1.7,0.3,3.4,0.8,5
		c-3-3.4-4.8-7.9-4.8-12.8c0-10.8,8.8-19.6,19.6-19.6c1.1,0,1.9-0.9,1.9-1.9c0-1.1-0.9-1.9-1.9-1.9c-12.9,0-23.4,10.5-23.4,23.4
		c0,12.7,10.1,23,22.6,23.4c0.3,0,0.5,0,0.8,0c1.1,0,1.9-0.9,1.9-1.9s-0.9-1.9-1.9-1.9c-0.1,0-0.2,0-0.4,0c-1.7-0.2-3.1-1.6-3.1-3.4
		c0-1.9,1.5-3.4,3.4-3.4c1.1,0,1.9-0.9,1.9-1.9c0-1.1-0.9-1.9-1.9-1.9c-4,0-7.3,3.3-7.3,7.3c0,0.3,0,0.6,0.1,0.9
		c-2.8-2.2-4.5-5.5-4.5-9.3C34.5,39.2,39.8,33.9,46.3,33.9z"/>
</g>
<g>
	<path class="st2" d="M117.2,30.5c-0.7-1.5-1.6-2.9-2.8-4.1c-2.5-2.6-5.9-4.1-9.7-4.1c-3.8,0-7.2,1.5-9.7,4.1c-2.5,2.6-4,6-4,9.8
		c0,3.9,1.5,7.3,4,9.8c2.5,2.6,5.9,4.1,9.7,4.1c3.8,0,7.2-1.6,9.7-4.1c1.1-1.2,2.1-2.5,2.8-4.1h0.7c-0.7,1.7-1.8,3.3-3,4.6
		c-2.6,2.7-6.2,4.3-10.1,4.3c-4,0-7.5-1.6-10.1-4.3c-2.6-2.6-4.2-6.3-4.2-10.3c0-4,1.6-7.7,4.2-10.3c2.6-2.7,6.2-4.3,10.1-4.3
		c4,0,7.5,1.6,10.1,4.3c1.3,1.3,2.3,2.8,3,4.6H117.2z"/>
	<path class="st2" d="M124.6,35.7H143V21.6h0.7v29.3H143V36.3h-18.4v14.5H124V21.6h0.6V35.7z"/>
	<path class="st2" d="M168.1,41h-14.8l-4,9.8h-0.7l11.8-29.7h0.7l11.8,29.7h-0.7L168.1,41z M153.5,40.4h14.3L160.7,22L153.5,40.4z"
		/>
	<path class="st2" d="M178.4,50.9h-0.6v-29v-0.3h0.3h9.8c11.7,0,11.7,17.1,0,17.1h-4.7l13.5,12.2h-1l-13.5-12.2V38h5.7
		c10.9,0,10.9-15.8,0-15.8h-9.5V50.9z"/>
	<path class="st2" d="M209.7,50.9V22.2h-10.1v-0.7h20.9v0.7h-10.1v28.6H209.7z"/>
</g>
<g>
	<path class="st0" d="M243.9,29c-0.6-2.7-3.5-3.8-6-3.8c-2,0-4.2,0.7-5.4,2.2c-0.6,0.8-0.8,1.7-0.7,2.7c0.2,3,3.5,3.4,6.7,3.7
		c4.1,0.5,9.1,1.6,10.2,6.3c0.1,0.6,0.2,1.4,0.2,1.9c0,5.7-5.7,9-11,9c-4.6,0-10.1-2.7-10.6-8l0-0.8l4.3-0.1l0,0.6v-0.2
		c0.3,2.7,3.6,4.2,6.4,4.2c3.2,0,6.6-1.8,6.6-4.8c0-0.3,0-0.6-0.1-1c-0.5-2.2-3.5-2.6-6.5-2.9c-4.6-0.5-10-1.5-10.5-7.6v0
		c-0.2-2,0.3-4,1.6-5.6c2-2.6,5.5-3.9,8.9-3.9c4.6,0,9.3,2.4,10,7.8L243.9,29z"/>
	<path class="st0" d="M254.7,42V21.4h4.3V42c0,3.2,3.5,4.9,6.6,4.9c3.1,0,6.6-1.6,6.6-4.9V21.4h4.3V42c0,6-5.8,9.1-10.9,9.1
		C260.4,51.2,254.7,48,254.7,42z"/>
	<path class="st0" d="M296.5,25.6H291v21h5.5v4.3h-15.2v-4.3h5.5v-21h-5.5v-4.2h15.2V25.6z"/>
	<path class="st0" d="M309.4,51V25.3h-8.9v-4h22.1v4h-8.9V51H309.4z"/>
	<path class="st0" d="M331.4,46.6h13.7v4.3h-18V21.4h18v4.3h-13.7v8.3h13.4v4.3h-13.4V46.6z"/>
</g>
</svg>
