<?xml version="1.0" encoding="utf-8"?>
<!-- Generator: Adobe Illustrator 21.0.0, SVG Export Plug-In . SVG Version: 6.00 Build 0)  -->
<svg version="1.1" id="Layer_1" xmlns="http://www.w3.org/2000/svg" xmlns:xlink="http://www.w3.org/1999/xlink" x="0px" y="0px"
	 viewBox="0 0 300 300" style="enable-background:new 0 0 300 300;" xml:space="preserve">
<style type="text/css">
	.st0{opacity:4.400000e-02;enable-background:new    ;}
	.st1{clip-path:url(#SVGID_2_);}
	.st2{clip-path:url(#SVGID_4_);}
	.st3{clip-path:url(#SVGID_6_);fill:#F83946;}
	.st4{clip-path:url(#SVGID_8_);}
	.st5{clip-path:url(#SVGID_10_);enable-background:new    ;}
	.st6{clip-path:url(#SVGID_12_);}
	.st7{clip-path:url(#SVGID_14_);}
	.st8{clip-path:url(#SVGID_16_);fill:#50514F;}
</style>
<g class="st0">
	<g>
		<defs>
			<rect id="SVGID_1_" x="38.5" y="43" width="223.1" height="214"/>
		</defs>
		<clipPath id="SVGID_2_">
			<use xlink:href="#SVGID_1_"  style="overflow:visible;"/>
		</clipPath>
		<g class="st1">
			<defs>
				<path id="SVGID_3_" d="M63.2,240.2l-8.4-7.6c0.2-0.3,23.7-26.3,29.5-50.7l0.1-0.5c6.1-25.5,14.5-60.5,66.2-61.7
					c49.7-1.2,89.2-18.7,100.5-44.6l10.4,4.5c-10.4,23.9-44.9,49.9-110.6,51.4c-43,1-49.4,27.5-55.5,53.1l-0.1,0.5
					C88.8,211.8,64.2,239.1,63.2,240.2"/>
			</defs>
			<clipPath id="SVGID_4_">
				<use xlink:href="#SVGID_3_"  style="overflow:visible;"/>
			</clipPath>
			<g class="st2">
				<defs>
					<rect id="SVGID_5_" x="38.5" y="43" width="223.1" height="213.6"/>
				</defs>
				<clipPath id="SVGID_6_">
					<use xlink:href="#SVGID_5_"  style="overflow:visible;"/>
				</clipPath>
				<rect x="52.8" y="73" class="st3" width="210.8" height="169.3"/>
			</g>
		</g>
		<g class="st1">
			<defs>
				<rect id="SVGID_7_" x="38.5" y="43.2" width="213.6" height="213.7"/>
			</defs>
			<clipPath id="SVGID_8_">
				<use xlink:href="#SVGID_7_"  style="overflow:visible;"/>
			</clipPath>
			<g class="st4">
				<defs>
					<rect id="SVGID_9_" x="38.5" y="43" width="223.1" height="213.6"/>
				</defs>
				<clipPath id="SVGID_10_">
					<use xlink:href="#SVGID_9_"  style="overflow:visible;"/>
				</clipPath>
				<g class="st5">
					<g>
						<defs>
							<rect id="SVGID_11_" x="38.5" y="43" width="214" height="214"/>
						</defs>
						<clipPath id="SVGID_12_">
							<use xlink:href="#SVGID_11_"  style="overflow:visible;"/>
						</clipPath>
						<g class="st6">
							<defs>
								<polygon id="SVGID_13_" points="252.1,230.8 64.7,230.8 64.7,43.2 53.3,43.2 53.3,90.8 38.5,90.8 38.5,102.1 53.3,102.1 
									53.3,119.7 38.5,119.7 38.5,131 53.3,131 53.3,148.6 38.5,148.6 38.5,160 53.3,160 53.3,177.6 38.5,177.6 38.5,188.9 
									53.3,188.9 53.3,206.5 38.5,206.5 38.5,217.8 53.3,217.8 53.3,242.1 77.6,242.1 77.6,257 88.9,257 88.9,242.1 106.5,242.1 
									106.5,257 117.8,257 117.8,242.1 135.4,242.1 135.4,257 146.7,257 146.7,242.1 164.4,242.1 164.4,257 175.7,257 
									175.7,242.1 193.3,242.1 193.3,257 204.6,257 204.6,242.1 222.2,242.1 222.2,257 233.5,257 233.5,242.1 252.1,242.1 
																	"/>
							</defs>
							<clipPath id="SVGID_14_">
								<use xlink:href="#SVGID_13_"  style="overflow:visible;"/>
							</clipPath>
							<g class="st7">
								<defs>
									<rect id="SVGID_15_" x="38.5" y="43" width="214" height="213.6"/>
								</defs>
								<clipPath id="SVGID_16_">
									<use xlink:href="#SVGID_15_"  style="overflow:visible;"/>
								</clipPath>
								<rect x="36.4" y="41.2" class="st8" width="217.8" height="217.9"/>
							</g>
						</g>
					</g>
				</g>
			</g>
		</g>
	</g>
</g>
</svg>
