<?xml version="1.0" encoding="utf-8"?>
<!-- Generator: Adobe Illustrator 21.0.2, SVG Export Plug-In . SVG Version: 6.00 Build 0)  -->
<svg version="1.1" id="Layer_1" xmlns="http://www.w3.org/2000/svg" xmlns:xlink="http://www.w3.org/1999/xlink" x="0px" y="0px"
	 viewBox="0 0 512 512" style="enable-background:new 0 0 512 512;" xml:space="preserve">
<style type="text/css">
	.st0{fill:#F9F7FB;}
</style>
<g>
	<g>
		<g id="XMLID_1_">
			<g>
				<path class="st0" d="M416.7,171.8c5,9.6,9.2,19.6,12.4,29.9c-6.6,4.5-12.4,10.1-17.1,16.8c-7.7,11-11.8,23.9-11.8,37.4
					s4.1,26.4,11.8,37.4c4.7,6.7,10.4,12.3,17,16.8c-3.2,10.3-7.4,20.4-12.4,30c-4.1-0.8-8.2-1.2-12.5-1.2
					c-17.4,0-33.9,6.8-46.2,19.1c-9.5,9.5-15.8,21.5-18.1,34.7c-1.4,8-1.3,16.1,0.2,23.9c-9.6,5-19.6,9.2-30,12.4
					c-4.5-6.6-10.1-12.4-16.8-17c-11-7.7-23.9-11.8-37.4-11.8c-13.5,0-26.4,4.1-37.4,11.8c-6.6,4.6-12.3,10.4-16.8,17
					c-10.3-3.2-20.4-7.4-30-12.4c1.5-7.8,1.6-15.9,0.2-23.9c-2.3-13.2-8.6-25.2-18.1-34.7c-12.3-12.3-28.7-19.1-46.2-19.1
					c-4.2,0-8.4,0.4-12.5,1.2c-5-9.6-9.2-19.6-12.4-30c6.6-4.5,12.4-10.1,17-16.8c7.7-11,11.8-23.9,11.8-37.4s-4.1-26.4-11.8-37.4
					c-4.7-6.7-10.4-12.3-17.1-16.8c3.2-10.3,7.4-20.3,12.4-29.9c4.1,0.8,8.3,1.2,12.5,1.2c17.4,0,33.8-6.8,46.2-19.1
					c9.5-9.5,15.8-21.6,18.1-34.8c1.4-8,1.3-16.1-0.2-23.9c10-5,20-9.1,30.3-12.4c4.5,6.6,10.1,12.4,16.8,17.1
					c11,7.7,24,11.8,37.4,11.8c13.5,0,26.4-4.1,37.4-11.8c6.7-4.7,12.3-10.4,16.8-17.1c10.3,3.2,20.3,7.4,29.9,12.4
					c-1.5,7.8-1.6,15.9-0.2,23.9c2.3,13.2,8.6,25.3,18.1,34.8c12.3,12.3,28.7,19.1,46.2,19.1C408.4,173,412.6,172.6,416.7,171.8z
					 M352.9,255.9c0-25.7-10-49.7-28.1-67.9c-18.1-18.1-42.2-28.1-67.9-28.1s-49.8,10-67.9,28.1s-28.1,42.2-28.1,67.9
					s10,49.7,28.1,67.9c18.1,18.1,42.3,28.1,67.9,28.1c25.7,0,49.8-10,67.9-28.1C342.9,305.7,352.9,281.6,352.9,255.9z"/>
				<path class="st0" d="M424.3,152.9c10.7,17.4,18.8,36.6,23.7,57.1c-18.6,7.2-31.7,25.1-31.7,46.1c0,21.1,13.1,39,31.6,46.1
					c-4.9,20.4-13,39.7-23.7,57.1c-6.3-2.8-13.2-4.2-20-4.2c-12.7,0-25.3,4.8-34.9,14.4c-14.8,14.9-18.2,36.8-10.2,54.9
					c-17.4,10.7-36.6,18.8-57.1,23.7c-7.1-18.5-25-31.6-46-31.6s-38.9,13.1-46,31.6c-20.4-4.9-39.7-13-57.1-23.7
					c8-18.1,4.6-40.1-10.2-54.9c-9.7-9.6-22.3-14.4-34.9-14.4c-6.8,0-13.6,1.4-20,4.2c-10.7-17.4-18.8-36.6-23.7-57.1
					c18.5-7.2,31.6-25.1,31.6-46.1c0-21.1-13.2-39-31.7-46.1c4.9-20.5,13-39.7,23.6-57.2c6.4,2.9,13.2,4.3,20.1,4.3
					c12.7,0,25.3-4.8,34.9-14.4c14.9-14.9,18.3-36.9,10.2-55C170.2,77,189.4,68.9,209.9,64C217,82.5,235,95.7,256,95.7
					s39-13.2,46.1-31.7c20.4,4.9,39.7,13,57,23.8c-8,18.2-4.7,40.1,10.2,55c9.7,9.6,22.3,14.4,34.9,14.4
					C411.1,157.2,417.9,155.7,424.3,152.9z M429.1,201.7c-3.2-10.3-7.4-20.3-12.4-29.9c-4.1,0.8-8.3,1.2-12.5,1.2
					c-17.5,0-33.9-6.8-46.2-19.1c-9.5-9.5-15.8-21.6-18.1-34.8c-1.4-8-1.3-16.1,0.2-23.9c-9.6-5-19.6-9.2-29.9-12.4
					c-4.5,6.7-10.1,12.4-16.8,17.1c-11,7.7-23.9,11.8-37.4,11.8c-13.4,0-26.4-4.1-37.4-11.8c-6.7-4.7-12.3-10.5-16.8-17.1
					c-10.3,3.3-20.3,7.4-30.3,12.4c1.5,7.8,1.6,15.9,0.2,23.9c-2.3,13.2-8.6,25.3-18.1,34.8c-12.4,12.3-28.8,19.1-46.2,19.1
					c-4.2,0-8.4-0.4-12.5-1.2c-5,9.6-9.2,19.6-12.4,29.9c6.7,4.5,12.4,10.1,17.1,16.8c7.7,11,11.8,23.9,11.8,37.4
					s-4.1,26.4-11.8,37.4c-4.6,6.7-10.4,12.3-17,16.8c3.2,10.4,7.4,20.4,12.4,30c4.1-0.8,8.3-1.2,12.5-1.2
					c17.5,0,33.9,6.8,46.2,19.1c9.5,9.5,15.8,21.5,18.1,34.7c1.4,8,1.3,16.1-0.2,23.9c9.6,5,19.7,9.2,30,12.4
					c4.5-6.6,10.2-12.4,16.8-17c11-7.7,23.9-11.8,37.4-11.8c13.5,0,26.4,4.1,37.4,11.8c6.7,4.6,12.3,10.4,16.8,17
					c10.4-3.2,20.4-7.4,30-12.4c-1.5-7.8-1.6-15.9-0.2-23.9c2.3-13.2,8.6-25.2,18.1-34.7c12.3-12.3,28.8-19.1,46.2-19.1
					c4.3,0,8.4,0.4,12.5,1.2c5-9.6,9.2-19.7,12.4-30c-6.6-4.5-12.3-10.1-17-16.8c-7.7-11-11.8-23.9-11.8-37.4s4.1-26.4,11.8-37.4
					C416.7,211.8,422.5,206.2,429.1,201.7z"/>
				<path class="st0" d="M324.8,188c18.1,18.2,28.1,42.2,28.1,67.9s-10,49.8-28.1,67.9c-18.1,18.1-42.2,28.1-67.9,28.1
					c-25.6,0-49.8-10-67.9-28.1c-18.1-18.2-28.1-42.2-28.1-67.9s10-49.8,28.1-67.9s42.2-28.1,67.9-28.1S306.7,169.9,324.8,188z
					 M336.9,255.9c0-44.1-35.7-80-80-80s-80,35.9-80,80s35.7,80,80,80S336.9,300,336.9,255.9z"/>
			</g>
			<g>
			</g>
		</g>
	</g>
</g>
</svg>
