<?xml version="1.0" encoding="utf-8"?>
<!-- Generator: Adobe Illustrator 21.0.2, SVG Export Plug-In . SVG Version: 6.00 Build 0)  -->
<svg version="1.1" id="Layer_1" xmlns="http://www.w3.org/2000/svg" xmlns:xlink="http://www.w3.org/1999/xlink" x="0px" y="0px"
	 viewBox="0 0 512 512" style="enable-background:new 0 0 512 512;" xml:space="preserve">
<style type="text/css">
	.st0{fill:#5A67F4;}
</style>
<g>
	<g>
		<path class="st0" d="M256.9,159.9c-25.7,0-49.8,10-67.9,28.1s-28.1,42.2-28.1,67.9c0,25.7,10,49.7,28.1,67.9
			c18.1,18.1,42.3,28.1,67.9,28.1c25.7,0,49.8-10,67.9-28.1c18.1-18.1,28.1-42.2,28.1-67.9c0-25.7-10-49.7-28.1-67.9
			C306.7,169.9,282.6,159.9,256.9,159.9z M256.9,335.9c-44.3,0-80-35.9-80-80c0-44.1,35.7-80,80-80c44.3,0,80,35.9,80,80
			C336.9,300,301.2,335.9,256.9,335.9z"/>
	</g>
	<g>
		<path class="st0" d="M201.8,82.8c4.5,6.6,10.1,12.4,16.8,17.1c11,7.7,24,11.8,37.4,11.8c13.5,0,26.4-4.1,37.4-11.8
			c6.7-4.7,12.3-10.4,16.8-17.1c10.3,3.2,20.3,7.4,29.9,12.4c-1.5,7.8-1.6,15.9-0.2,23.9c2.3,13.2,8.6,25.3,18.1,34.8
			c12.3,12.3,28.7,19.1,46.2,19.1c4.2,0,8.4-0.4,12.5-1.2c5,9.6,9.2,19.6,12.4,29.9c-6.6,4.5-12.4,10.1-17.1,16.8
			c-7.7,11-11.8,23.9-11.8,37.4c0,13.5,4.1,26.4,11.8,37.4c4.7,6.7,10.4,12.3,17,16.8c-3.2,10.3-7.4,20.4-12.4,30
			c-4.1-0.8-8.2-1.2-12.5-1.2c-17.4,0-33.9,6.8-46.2,19.1c-9.5,9.5-15.8,21.5-18.1,34.7c-1.4,8-1.3,16.1,0.2,23.9
			c-9.6,5-19.6,9.2-30,12.4c-4.5-6.6-10.1-12.4-16.8-17c-11-7.7-23.9-11.8-37.4-11.8c-13.5,0-26.4,4.1-37.4,11.8
			c-6.6,4.6-12.3,10.4-16.8,17c-10.3-3.2-20.4-7.4-30-12.4c1.5-7.8,1.6-15.9,0.2-23.9c-2.3-13.2-8.6-25.2-18.1-34.7
			c-12.3-12.3-28.7-19.1-46.2-19.1c-4.2,0-8.4,0.4-12.5,1.2c-5-9.6-9.2-19.6-12.4-30c6.6-4.5,12.4-10.1,17-16.8
			c7.7-11,11.8-23.9,11.8-37.4c0-13.5-4.1-26.4-11.8-37.4c-4.7-6.7-10.4-12.3-17.1-16.8c3.2-10.3,7.4-20.3,12.4-29.9
			c4.1,0.8,8.3,1.2,12.5,1.2c17.4,0,33.8-6.8,46.2-19.1c9.5-9.5,15.8-21.6,18.1-34.8c1.4-8,1.3-16.1-0.2-23.9
			C181.5,90.2,191.5,86.1,201.8,82.8 M302.1,64C295,82.5,277,95.7,256,95.7c-21,0-39-13.2-46.1-31.7c-20.5,4.9-39.7,13-57.1,23.7
			c8.1,18.1,4.7,40.1-10.2,55c-9.6,9.6-22.2,14.4-34.9,14.4c-6.9,0-13.7-1.4-20.1-4.3C77,170.3,68.9,189.5,64,210
			c18.5,7.1,31.7,25,31.7,46.1c0,21-13.1,38.9-31.6,46.1c4.9,20.5,13,39.7,23.7,57.1c6.4-2.8,13.2-4.2,20-4.2
			c12.6,0,25.2,4.8,34.9,14.4c14.8,14.8,18.2,36.8,10.2,54.9c17.4,10.7,36.7,18.8,57.1,23.7c7.1-18.5,25-31.6,46-31.6
			c21,0,38.9,13.1,46,31.6c20.5-4.9,39.7-13,57.1-23.7c-8-18.1-4.6-40,10.2-54.9c9.6-9.6,22.2-14.4,34.9-14.4c6.8,0,13.7,1.4,20,4.2
			c10.7-17.4,18.8-36.7,23.7-57.1c-18.5-7.1-31.6-25-31.6-46.1c0-21,13.1-38.9,31.7-46.1c-4.9-20.5-13-39.7-23.7-57.1
			c-6.4,2.8-13.2,4.3-20.1,4.3c-12.6,0-25.2-4.8-34.9-14.4c-14.9-14.9-18.2-36.8-10.2-55C341.8,77,322.5,68.9,302.1,64L302.1,64z"/>
	</g>
</g>
</svg>
