<?xml version="1.0" encoding="utf-8"?>
<!-- Generator: Adobe Illustrator 21.0.0, SVG Export Plug-In . SVG Version: 6.00 Build 0)  -->
<svg version="1.1" id="Layer_1" xmlns="http://www.w3.org/2000/svg" xmlns:xlink="http://www.w3.org/1999/xlink" x="0px" y="0px"
	 viewBox="0 0 350 75" style="enable-background:new 0 0 350 75;" xml:space="preserve">
<style type="text/css">
	.st0{fill:#5A67F4;}
	.st1{fill:#F9F7FB;}
	.st2{fill:#171D1C;}
</style>
<g>
	<g>
		<g>
			<rect x="6.3" y="4.3" class="st0" width="66.4" height="66.4"/>
		</g>
	</g>
	<g>
		<g>
			<path class="st0" d="M72.7,72.8H6.3c-1.2,0-2.1-0.9-2.1-2.1V4.3c0-1.2,0.9-2.1,2.1-2.1h66.4c1.2,0,2.1,0.9,2.1,2.1v66.4
				C74.8,71.9,73.8,72.8,72.7,72.8z M8.4,68.6h62.2V6.4H8.4V68.6z"/>
		</g>
	</g>
</g>
<g>
	<g>
		<path class="st1" d="M46.4,33.3c1.1,0,1.9-0.9,1.9-1.9s-0.9-1.9-1.9-1.9c-8.6,0-15.7,7-15.7,15.7c0,1.7,0.3,3.4,0.8,5
			c-3-3.4-4.8-7.9-4.8-12.8c0-10.8,8.8-19.6,19.6-19.6c1.1,0,1.9-0.9,1.9-1.9s-0.9-1.9-1.9-1.9c-13,0-23.5,10.5-23.5,23.5
			c0,12.7,10.1,23,22.7,23.5c0.3,0,0.5,0,0.8,0c1.1,0,1.9-0.9,1.9-1.9c0-1.1-0.9-1.9-1.9-1.9c-0.1,0-0.2,0-0.4,0
			c-1.7-0.2-3.1-1.7-3.1-3.4c0-1.9,1.6-3.5,3.5-3.5c1.1,0,1.9-0.9,1.9-1.9c0-1.1-0.9-1.9-1.9-1.9c-4,0-7.3,3.3-7.3,7.3
			c0,0.3,0,0.6,0.1,0.9c-2.8-2.2-4.5-5.5-4.5-9.3C34.6,38.6,39.8,33.3,46.4,33.3z"/>
	</g>
</g>
<g>
	<g>
		<path class="st2" d="M117.4,30.8c-0.7-1.6-1.6-2.9-2.8-4.1c-2.5-2.6-5.9-4.1-9.7-4.1c-3.8,0-7.2,1.6-9.7,4.1c-2.5,2.6-4,6-4,9.9
			c0,3.9,1.6,7.3,4,9.9c2.5,2.6,5.9,4.2,9.7,4.2c3.8,0,7.2-1.6,9.7-4.2c1.1-1.2,2.1-2.5,2.8-4.1h0.7c-0.7,1.7-1.8,3.3-3,4.6
			c-2.6,2.7-6.2,4.3-10.2,4.3c-4,0-7.6-1.6-10.2-4.3c-2.6-2.6-4.2-6.3-4.2-10.4c0-4,1.6-7.7,4.2-10.3c2.6-2.7,6.2-4.3,10.2-4.3
			c4,0,7.6,1.6,10.2,4.3c1.3,1.3,2.3,2.9,3,4.6H117.4z"/>
		<path class="st2" d="M104.9,51.6c-3.9,0-7.6-1.6-10.4-4.4c-2.8-2.8-4.3-6.6-4.3-10.6c0-3.9,1.5-7.7,4.3-10.5
			c2.8-2.8,6.4-4.4,10.4-4.4c3.9,0,7.6,1.6,10.4,4.4c1.3,1.4,2.4,3,3.1,4.7l0.2,0.4h-1.3l-0.1-0.2c-0.6-1.5-1.5-2.8-2.7-4
			c-2.5-2.6-5.9-4-9.5-4c-3.6,0-7,1.4-9.5,4c-2.5,2.6-3.9,6.1-3.9,9.7c0,3.6,1.4,7.1,3.9,9.7c2.5,2.6,5.9,4.1,9.5,4.1
			c3.6,0,7-1.4,9.5-4.1c1.2-1.2,2.1-2.6,2.7-4l0.1-0.2h1.3l-0.2,0.4c-0.7,1.7-1.8,3.3-3.1,4.7C112.5,50,108.8,51.6,104.9,51.6z
			 M104.9,22.2c-3.8,0-7.3,1.5-10,4.2c-2.7,2.7-4.1,6.3-4.1,10.1c0,3.8,1.5,7.4,4.1,10.2c2.6,2.7,6.2,4.2,10,4.2
			c3.8,0,7.3-1.5,10-4.2c1.2-1.2,2.1-2.6,2.8-4.1h-0.1c-0.6,1.4-1.6,2.8-2.8,4c-2.6,2.7-6.2,4.2-9.9,4.2c-3.7,0-7.3-1.5-9.9-4.2
			c-2.6-2.7-4.1-6.3-4.1-10.1c0-3.7,1.5-7.3,4.1-10.1c2.6-2.7,6.1-4.2,9.9-4.2c3.8,0,7.3,1.5,9.9,4.2c1.2,1.2,2.1,2.6,2.8,4h0.1
			c-0.7-1.5-1.6-2.9-2.8-4.1C112.2,23.7,108.7,22.2,104.9,22.2z"/>
	</g>
	<g>
		<path class="st2" d="M124.8,36.1h18.4V21.9h0.7v29.3h-0.7V36.7h-18.4v14.6h-0.6V21.9h0.6V36.1z"/>
		<path class="st2" d="M144.2,51.5H143V37h-17.9v14.6h-1.2V21.6h1.2v14.1H143V21.6h1.2V51.5z M143.6,51h0.1V22.2h-0.1v14.1h-19V22.2
			h-0.1V51h0.1V36.4h19V51z"/>
	</g>
	<g>
		<path class="st2" d="M168.4,41.4h-14.9l-4,9.9h-0.7l11.8-29.8h0.7l11.8,29.8h-0.7L168.4,41.4z M153.8,40.8h14.3L161,22.3
			L153.8,40.8z"/>
		<path class="st2" d="M173.6,51.5h-1.3l-4-9.9h-14.5l-4,9.9h-1.3l12-30.4h1.1L173.6,51.5z M172.6,51h0.1l-11.6-29.2H161l7.5,19.3
			h-15.1l7.5-19.3h-0.1L149.3,51h0.1l4-9.9h15.2L172.6,51z M154.2,40.5h13.5L161,23.1L154.2,40.5z"/>
	</g>
	<g>
		<path class="st2" d="M178.7,51.2h-0.6v-29v-0.3h0.3h9.8c11.8,0,11.8,17.2,0,17.2h-4.7L197,51.2h-1L182.6,39v-0.6h5.7
			c10.9,0,10.9-15.9,0-15.9h-9.5V51.2z"/>
		<path class="st2" d="M197.8,51.5H196l-13.7-12.4v-1h6c2.4,0,4.5-0.8,5.9-2.4c1.3-1.4,2-3.3,2-5.3c0-3.7-2.5-7.6-7.9-7.6H179v28.7
			h-1.2V21.6h10.4c6.2,0,9.1,4.6,9.1,8.9c0,2.3-0.8,4.5-2.3,6.1c-1.7,1.8-4,2.8-6.8,2.8h-4L197.8,51.5z M196.2,51h0.1l-13.5-12.2
			v0.1L196.2,51z M178.4,51L178.4,51l0.1-28.7h9.8c5.8,0,8.5,4.3,8.5,8.2c0,2.1-0.8,4.2-2.1,5.6c-1.5,1.7-3.7,2.6-6.3,2.6h-5.4v0.1
			h5.4c2.6,0,4.9-0.9,6.4-2.6c1.4-1.5,2.1-3.5,2.1-5.7c0-4-2.7-8.3-8.5-8.3h-9.9V51z"/>
	</g>
	<g>
		<path class="st2" d="M210.1,51.2V22.5h-10.2v-0.7h20.9v0.7h-10.2v28.7H210.1z"/>
		<path class="st2" d="M211,51.5h-1.2V22.8h-10.2v-1.2h21.5v1.2H211V51.5z M210.4,51L210.4,51l0.1-28.7h10.2v-0.1h-20.4v0.1h10.2V51
			z"/>
	</g>
</g>
<g>
	<g>
		<path class="st2" d="M244.4,29.3c-0.6-2.7-3.5-3.8-6-3.8c-2,0-4.2,0.7-5.4,2.2c-0.6,0.8-0.8,1.7-0.7,2.7c0.2,3,3.6,3.4,6.7,3.7
			c4.1,0.5,9.1,1.6,10.2,6.3c0.1,0.6,0.2,1.4,0.2,1.9c0,5.7-5.7,9-11,9c-4.6,0-10.1-2.7-10.7-8l0-0.8l4.3-0.1l0,0.6v-0.2
			c0.3,2.7,3.6,4.2,6.4,4.2c3.2,0,6.6-1.8,6.6-4.8c0-0.3,0-0.6-0.1-1c-0.5-2.2-3.6-2.6-6.5-2.9c-4.6-0.5-10-1.5-10.5-7.7v0
			c-0.2-2,0.3-4,1.6-5.6c2-2.6,5.5-3.9,9-3.9c4.6,0,9.3,2.4,10.1,7.8L244.4,29.3z"/>
	</g>
	<g>
		<path class="st2" d="M255.2,42.4V21.7h4.3v20.7c0,3.3,3.5,4.9,6.6,4.9c3.1,0,6.6-1.6,6.6-4.9V21.7h4.3v20.7c0,6-5.8,9.1-10.9,9.1
			C260.9,51.5,255.2,48.4,255.2,42.4z"/>
	</g>
	<g>
		<path class="st2" d="M297.1,25.9h-5.5V47h5.5v4.3h-15.3V47h5.5V25.9h-5.5v-4.2h15.3V25.9z"/>
	</g>
	<g>
		<path class="st2" d="M310,51.4V25.6h-9v-4h22.2v4h-8.9v25.7H310z"/>
	</g>
	<g>
		<path class="st2" d="M332.1,47h13.7v4.3h-18.1V21.7h18V26h-13.7v8.3h13.4v4.3h-13.4V47z"/>
	</g>
</g>
</svg>
